<?xml version="1.0" encoding="utf-8"?>
<!-- Generator: Adobe Illustrator 19.0.1, SVG Export Plug-In . SVG Version: 6.00 Build 0)  -->
<svg version="1.1" id="Слой_1" xmlns="http://www.w3.org/2000/svg" xmlns:xlink="http://www.w3.org/1999/xlink" x="0px" y="0px"
	 viewBox="0 0 528.6 404.3" style="enable-background:new 0 0 528.6 404.3;" xml:space="preserve">
<style type="text/css">
	.st0{opacity:0.15;fill-rule:evenodd;clip-rule:evenodd;fill:#2B255C;}
</style>
<g>
	<g>
		<path class="st0" d="M420.9,327.6l9.4,1.7l2.7,10.3l9.2-8.3l7.8,8.3l3.5-8.5l6.6-3.8l-1.6-8.2l3.5-8.5l-11.4-0.9l-0.6-11.2
			l-8.5,3.5l-8.5-3.5l-1.2,11.7l-10.9,0.3l3.5,8.5L420.9,327.6L420.9,327.6z M352.7,314.8l23-1.4l-10.3-11.3l8.4-7.6l17,21.9
			l19.1-2.9l-1.8-8.1l7-4.6l-13.3-13.3l-25.6,1.2l-0.5-11.3l18.9,0.7l-21.5-17l8-8l17.9,15.6l0.7-15.3l11.3,0.5l-1.2,25.6l14,16.8
			l3-12.5l9,3.7v-18.8l-19-17.2l7.6-8.4l12.7,12l-1.4-21h11.4v19.3l11.3-10.3l7.6,8.4l-20.5,16.3l1.5,19.8l9-3.7l3.7,9l13.3-13.3
			l-1.2-25.6l11.3-0.5l0.7,15.3l13.7-13.7l8,8l-17.2,11.9l18.8,2.5l-0.5,11.3l-24.1-3.6l-14.8,15.7l9,3.7l-6.5,9h25l13.9-19l8.4,7.6
			l-10.3,11.3l21.3-1.5l-0.1,15.1l-24.4-3.2l13.5,12.3l-8.4,7.6l-17.2-19h-18.8l3.9,10.7l-10.7,3.3l15.5,14.4l24.9-3.6l0.5,11.3
			l-15.3,0.7l16.9,16.1l-8,8L484,369.7l-0.7,15.3l-11.3-0.5l1.7-27.7l-13.8-11.2l-5,7l-8-4.3l-1.5,22.6l20.8,16l-7.6,8.4l-11.3-10.3
			v19.3h-11.4v-19.3l-11.3,10.3l-7.6-8.4l19-17.2v-18.8l-9,3.7l-3.7-9l-15.5,13.9l3.3,22.4l-11.3,0.5l-0.6-15.6l-12.2,16l-9.6-9.2
			l13.8-11.8l-15.3-0.7l0.5-11.3l24.6,4.3L419,335l-12.9-1.2l3.7-9H391l-17.2,19l-8.4-7.6l13.2-13.6l-25.9,3.6V314.8z"/>
		<path class="st0" d="M385.3,71.2l7.1,1.3l2,7.9l7-6.3l5.9,6.3l2.7-6.5l5-2.9l-1.2-6.3l2.7-6.5l-8.7-0.7l-0.5-8.5l-6.5,2.7
			l-6.5-2.7l-0.9,8.9l-8.3,0.2l2.7,6.5L385.3,71.2L385.3,71.2z M333.5,61.5l17.5-1.1l-7.8-8.6l6.4-5.8l12.9,16.6l14.5-2.2l-1.3-6.2
			l5.3-3.5l-10.1-10.1l-19.5,0.9l-0.4-8.6l14.4,0.5L349,20.5l6.1-6.1l13.6,11.9l0.6-11.6l8.6,0.4l-0.9,19.5l10.6,12.8l2.3-9.5
			l6.8,2.8V26.4l-14.4-13.1l5.8-6.4l9.7,9.1l-1.1-16h8.6v14.7l8.6-7.8l5.8,6.4l-15.6,12.4l1.2,15l6.8-2.8l2.8,6.8l10.1-10.1
			l-0.9-19.5l8.6-0.4l0.6,11.6l10.4-10.4l6.1,6.1l-13.1,9.1L451,33l-0.4,8.6l-18.3-2.8l-11.2,11.9l6.8,2.8l-5,6.8h19L452.5,46
			l6.4,5.8l-7.8,8.6l16.2-1.2l-0.1,11.5l-18.5-2.4l10.3,9.3l-6.4,5.8l-13.1-14.4h-14.3l3,8.1l-8.2,2.5l11.8,11l18.9-2.7l0.4,8.6
			l-11.6,0.6l12.8,12.2l-6.1,6.1l-12.8-12.2l-0.6,11.6l-8.6-0.4l1.3-21l-10.5-8.5l-3.8,5.3l-6.1-3.3l-1.2,17.2l15.8,12.1l-5.8,6.4
			l-8.6-7.8v14.7h-8.6v-14.7l-8.6,7.8l-5.8-6.4l14.4-13.1V88.8l-6.8,2.8l-2.8-6.8l-11.8,10.5l2.5,17l-8.6,0.4l-0.5-11.8l-9.3,12.1
			l-7.3-7l10.5-9l-11.6-0.6l0.4-8.6l18.7,3.3l13.8-14.4l-9.8-0.9l2.8-6.8h-14.3l-13.1,14.4l-6.4-5.8l10.1-10.3l-19.7,2.8V61.5z"/>
		<path class="st0" d="M54.5,306.7l5.6,1l1.6,6.2l5.6-5l4.7,5l2.1-5.1l4-2.3l-1-5l2.1-5.1l-6.9-0.5l-0.4-6.7l-5.1,2.1l-5.1-2.1
			l-0.7,7.1l-6.6,0.2l2.1,5.1L54.5,306.7L54.5,306.7z M13.3,298.9l13.9-0.8l-6.2-6.8l5.1-4.6l10.2,13.2l11.5-1.8l-1.1-4.9l4.2-2.8
			l-8-8l-15.5,0.7l-0.3-6.9l11.4,0.4l-13-10.3l4.9-4.9l10.8,9.4l0.4-9.2l6.9,0.3l-0.7,15.5l8.5,10.1l1.8-7.5l5.4,2.2V271L52,260.6
			l4.6-5.1l7.7,7.2l-0.8-12.7h6.9v11.7l6.8-6.2l4.6,5.1l-12.4,9.8l0.9,11.9l5.4-2.2l2.2,5.4l8-8l-0.7-15.5l6.9-0.3l0.4,9.2l8.3-8.3
			l4.9,4.9l-10.4,7.2l11.4,1.5l-0.3,6.9l-14.6-2.2l-8.9,9.5l5.4,2.2l-3.9,5.4h15.1l8.4-11.5l5.1,4.6l-6.2,6.8l12.9-0.9l-0.1,9.1
			l-14.7-1.9l8.2,7.4l-5.1,4.6l-10.4-11.5H86.1l2.4,6.4l-6.5,2l9.4,8.7l15-2.2l0.3,6.9l-9.2,0.4l10.2,9.7l-4.9,4.9l-10.2-9.7
			l-0.4,9.2l-6.9-0.3l1-16.7l-8.3-6.8l-3,4.2l-4.8-2.6l-0.9,13.6l12.5,9.7l-4.6,5.1l-6.8-6.2V353h-6.9v-11.7l-6.8,6.2l-4.6-5.1
			L63.5,332v-11.4l-5.4,2.2l-2.2-5.4l-9.4,8.4l2,13.5l-6.9,0.3l-0.4-9.4l-7.4,9.7l-5.8-5.6l8.3-7.2l-9.2-0.4l0.3-6.9l14.9,2.6
			l11-11.4l-7.8-0.7l2.2-5.4H36.4L26,316.4l-5.1-4.6l8-8.2l-15.6,2.2V298.9z"/>
		<path class="st0" d="M41.2,82.8l5.6,1l1.6,6.2l5.6-5l4.7,5l2.1-5.1l4-2.3l-1-5l2.1-5.1L59.1,72l-0.4-6.7l-5.1,2.1l-5.1-2.1
			l-0.7,7.1l-6.6,0.2l2.1,5.1L41.2,82.8L41.2,82.8z M0,75.1l13.9-0.8l-6.2-6.8l5.1-4.6L23,76l11.5-1.8l-1.1-4.9l4.2-2.8l-8-8
			l-15.5,0.7l-0.3-6.9l11.4,0.4l-13-10.3l4.9-4.9l10.8,9.4l0.4-9.2l6.9,0.3l-0.7,15.5L43,63.8l1.8-7.5l5.4,2.2V47.2L38.8,36.8
			l4.6-5.1l7.7,7.2l-0.8-12.7h6.9v11.7l6.8-6.2l4.6,5.1l-12.4,9.8l0.9,12l5.4-2.2l2.2,5.4l8-8L72,38.2l6.9-0.3l0.4,9.2l8.3-8.3
			l4.9,4.9L82,50.9l11.4,1.5l-0.3,6.9l-14.6-2.2l-8.9,9.5l5.4,2.2l-3.9,5.4h15.1l8.4-11.5l5.1,4.6l-6.2,6.8l12.9-0.9l-0.1,9.1
			l-14.7-1.9l8.2,7.4l-5.1,4.6L84.1,81.1H72.8l2.4,6.4l-6.5,2l9.4,8.7l15-2.2l0.3,6.9l-9.2,0.4l10.2,9.7l-4.9,4.9l-10.2-9.7
			l-0.4,9.2l-6.9-0.3l1-16.7l-8.3-6.8l-3,4.2l-4.8-2.6L56,108.9l12.5,9.7l-4.6,5.1l-6.8-6.2v11.7h-6.9v-11.7l-6.8,6.2l-4.6-5.1
			l11.5-10.4V96.8l-5.4,2.2l-2.2-5.4l-9.4,8.4l2,13.5l-6.9,0.3l-0.4-9.4l-7.4,9.7l-5.8-5.6l8.3-7.2l-9.2-0.4l0.3-6.9l14.9,2.6
			l11-11.4l-7.8-0.7l2.2-5.4H23.1L12.7,92.6L7.7,88l8-8.2L0,82V75.1z"/>
	</g>
</g>
</svg>
