<?xml version="1.0" encoding="utf-8"?>
<!-- Generator: Adobe Illustrator 19.0.1, SVG Export Plug-In . SVG Version: 6.00 Build 0)  -->
<svg version="1.1" id="Capa_1" xmlns="http://www.w3.org/2000/svg" xmlns:xlink="http://www.w3.org/1999/xlink" x="0px" y="0px"
	 viewBox="-2 164.9 591 512" style="enable-background:new -2 164.9 591 512;" xml:space="preserve">
<style type="text/css">
	.st0{opacity:0.6;}
	.st1{fill:#41CBD7;}
	.st2{fill:#F80116;}
	.st3{fill:#FFFFFF;}
</style>
<g class="st0">
	<path id="Facebook__x28_alt_x29__2_" class="st1" d="M507,415.1c0-44.8-40.5-85.3-85.3-85.3H80.3C35.5,329.8-5,370.3-5,415.1v341.3
		c0,44.8,40.5,85.3,85.3,85.3H251V648.4h-62.6v-85.3H251v-33.2c0-57.3,43.1-109,96-109h69v85.3h-69c-7.5,0-16.4,9.2-16.4,22.9v34
		H416v85.3h-85.3v193.4h91c44.9,0,85.3-40.5,85.3-85.3V415.1z"/>
</g>
<g class="st0">
	<path id="Facebook__x28_alt_x29__1_" class="st2" d="M428,415.1c0-44.8-40.5-85.3-85.3-85.3H1.3c-44.9,0-85.3,40.5-85.3,85.3v341.3
		c0,44.8,40.5,85.3,85.3,85.3H172V648.4h-62.6v-85.3H172v-33.2c0-57.3,43.1-109,96-109h69v85.3h-69c-7.5,0-16.4,9.2-16.4,22.9v34
		H337v85.3h-85.3v193.4h91c44.9,0,85.3-40.5,85.3-85.3V415.1z"/>
</g>
<g>
	<path id="Facebook__x28_alt_x29_" class="st3" d="M469,415.1c0-44.8-40.5-85.3-85.3-85.3H42.3c-44.9,0-85.3,40.5-85.3,85.3v341.3
		c0,44.8,40.5,85.3,85.3,85.3H213V648.4h-62.6v-85.3H213v-33.2c0-57.3,43.1-109,96-109h69v85.3h-69c-7.5,0-16.4,9.2-16.4,22.9v34
		H378v85.3h-85.3v193.4h91c44.9,0,85.3-40.5,85.3-85.3V415.1z"/>
</g>
</svg>
