<?xml version="1.0" encoding="utf-8"?>
<!-- Generator: Adobe Illustrator 19.0.1, SVG Export Plug-In . SVG Version: 6.00 Build 0)  -->
<svg version="1.1" id="Capa_1" xmlns="http://www.w3.org/2000/svg" xmlns:xlink="http://www.w3.org/1999/xlink" x="0px" y="0px"
	 viewBox="-243 372.3 108.4 97.6" style="enable-background:new -243 372.3 108.4 97.6;" xml:space="preserve">
<style type="text/css">
	.st0{opacity:0.6;}
	.st1{fill:#00C3D1;}
	.st2{fill:#F80116;}
	.st3{fill:#FFFFFF;}
</style>
<g class="st0">
	<path class="st1" d="M-473.5,744.8h72.4c6.9,0,12.5,5.1,12.5,12.5v72.4c0,7.4-5.6,12.5-12.5,12.5h-72.4c-6.9,0-12.5-5.1-12.5-12.5
		v-72.4C-486,749.9-480.4,744.8-473.5,744.8L-473.5,744.8z M-415.1,755.6c-2.4,0-4.4,2-4.4,4.4v10.5c0,2.4,2,4.4,4.4,4.4h11
		c2.4,0,4.4-2,4.4-4.4V760c0-2.4-2-4.4-4.4-4.4H-415.1L-415.1,755.6z M-399.6,786h-8.6c0.8,2.6,1.3,5.5,1.3,8.4
		c0,16.2-13.6,29.3-30.3,29.3s-30.3-13.1-30.3-29.3c0-2.9,0.4-5.7,1.3-8.4h-8.9v41.1c0,2.1,1.7,3.9,3.9,3.9h67.8
		c2.1,0,3.9-1.7,3.9-3.9L-399.6,786L-399.6,786z M-437.2,774.3c-10.8,0-19.6,8.5-19.6,19s8.8,19,19.6,19c10.8,0,19.6-8.5,19.6-19
		S-426.4,774.3-437.2,774.3z"/>
</g>
<g class="st0">
	<path class="st2" d="M-484.6,744.6h72.4c6.9,0,12.5,5.1,12.5,12.5v72.4c0,7.4-5.6,12.5-12.5,12.5h-72.4c-6.9,0-12.5-5.1-12.5-12.5
		v-72.4C-497.1,749.7-491.4,744.6-484.6,744.6L-484.6,744.6z M-426.1,755.4c-2.4,0-4.4,2-4.4,4.4v10.5c0,2.4,2,4.4,4.4,4.4h11
		c2.4,0,4.4-2,4.4-4.4v-10.5c0-2.4-2-4.4-4.4-4.4H-426.1L-426.1,755.4z M-410.7,785.8h-8.6c0.8,2.6,1.3,5.5,1.3,8.4
		c0,16.2-13.6,29.3-30.3,29.3c-16.7,0-30.3-13.1-30.3-29.3c0-2.9,0.4-5.7,1.3-8.4h-8.9v41.1c0,2.1,1.7,3.9,3.9,3.9h67.8
		c2.1,0,3.9-1.7,3.9-3.9L-410.7,785.8L-410.7,785.8z M-448.3,774.1c-10.8,0-19.6,8.5-19.6,19s8.8,19,19.6,19
		c10.8,0,19.6-8.5,19.6-19S-437.5,774.1-448.3,774.1z"/>
</g>
<g>
	<path class="st3" d="M-478.5,744.8h72.4c6.9,0,12.5,5.1,12.5,12.5v72.4c0,7.4-5.6,12.5-12.5,12.5h-72.4c-6.9,0-12.5-5.1-12.5-12.5
		v-72.4C-491,749.9-485.4,744.8-478.5,744.8L-478.5,744.8z M-420.1,755.6c-2.4,0-4.4,2-4.4,4.4v10.5c0,2.4,2,4.4,4.4,4.4h11
		c2.4,0,4.4-2,4.4-4.4V760c0-2.4-2-4.4-4.4-4.4H-420.1L-420.1,755.6z M-404.6,786h-8.6c0.8,2.6,1.3,5.5,1.3,8.4
		c0,16.2-13.6,29.3-30.3,29.3s-30.3-13.1-30.3-29.3c0-2.9,0.4-5.7,1.3-8.4h-8.9v41.1c0,2.1,1.7,3.9,3.9,3.9h67.8
		c2.1,0,3.9-1.7,3.9-3.9L-404.6,786L-404.6,786z M-442.2,774.3c-10.8,0-19.6,8.5-19.6,19s8.8,19,19.6,19c10.8,0,19.6-8.5,19.6-19
		C-422.6,782.8-431.4,774.3-442.2,774.3z"/>
</g>
</svg>
