<?xml version="1.0" encoding="utf-8"?>
<!-- Generator: Adobe Illustrator 19.0.1, SVG Export Plug-In . SVG Version: 6.00 Build 0)  -->
<svg version="1.1" id="Слой_1" xmlns="http://www.w3.org/2000/svg" xmlns:xlink="http://www.w3.org/1999/xlink" x="0px" y="0px"
	 viewBox="0 0 68.3 43.5" style="enable-background:new 0 0 68.3 43.5;" xml:space="preserve">
<style type="text/css">
	.st0{fill-rule:evenodd;clip-rule:evenodd;fill:url(#SVGID_1_);}
	.st1{fill-rule:evenodd;clip-rule:evenodd;fill:#2B255C;}
</style>
<linearGradient id="SVGID_1_" gradientUnits="userSpaceOnUse" x1="3.261627e-002" y1="12.4038" x2="68.3379" y2="12.4038">
	<stop  offset="0" style="stop-color:#2B255C"/>
	<stop  offset="0.4" style="stop-color:#8C1D82"/>
	<stop  offset="0.73" style="stop-color:#E73331"/>
	<stop  offset="1" style="stop-color:#F59C00"/>
</linearGradient>
<path class="st0" d="M0,24.8h68.3V0H0V24.8L0,24.8z M51.4,3.3H65v13.6L51.4,3.3L51.4,3.3z M43.1,3.3h2.5v18.2h-2.5V3.3L43.1,3.3z
	 M39.1,3.3h3.8L24.8,21.5H21L39.1,3.3L39.1,3.3z M19.9,3.3h13.5l-6.7,6.7L19.9,3.3L19.9,3.3z M3.3,3.3h11l2.5,2.5H3.3V3.3L3.3,3.3z
	 M49.7,7.3l5.3,5.3l-5.3,5.3V7.3L49.7,7.3z M13,9.9h7.8l3.1,3.1l-8.6,8.6H13V9.9L13,9.9z M3.3,9.9H9v11.6H3.3V9.9L3.3,9.9z
	 M39.1,12.8v8.7h-8.7L39.1,12.8L39.1,12.8z M57.8,15.4l6.1,6.1H51.7L57.8,15.4z"/>
<path class="st1" d="M3.3,29.9c-0.1,0-0.2,0.1-0.2,0.1v2H1.3v-2c0-0.1-0.1-0.1-0.2-0.1H0.3c-0.1,0-0.2,0.1-0.2,0.1v5
	c0,0.1,0.1,0.1,0.2,0.1h0.8c0.1,0,0.2-0.1,0.2-0.1v-2h1.8v2c0,0.1,0.1,0.1,0.2,0.1h0.8c0.1,0,0.2-0.1,0.2-0.1v-5
	c0-0.1-0.1-0.1-0.2-0.1H3.3L3.3,29.9z M7.8,29.9c-1.8,0-2.6,1.3-2.6,2.7c0,1.3,0.9,2.7,2.6,2.7c1.7,0,2.6-1.4,2.6-2.7
	C10.4,31.2,9.5,29.9,7.8,29.9L7.8,29.9z M7.8,34.2c-1,0-1.4-0.8-1.4-1.6c0-0.8,0.5-1.6,1.4-1.6c1,0,1.4,0.8,1.4,1.6
	C9.2,33.4,8.8,34.2,7.8,34.2L7.8,34.2z M15.1,31.4c0-1.6-1.8-1.5-1.8-1.5h-1.7c-0.1,0-0.2,0.1-0.2,0.1v5c0,0.1,0.1,0.1,0.2,0.1h1.7
	c0.4,0,1.9-0.1,1.9-1.6c0,0,0-0.7-0.7-1.1C14.8,32.3,15.1,32,15.1,31.4L15.1,31.4z M12.5,31h0.7c0,0,0.7,0,0.7,0.5
	c0,0.5-0.7,0.5-0.7,0.5h-0.7V31L12.5,31z M13.2,34.1h-0.7v-1h0.7c0,0,0.7,0,0.7,0.5C14,34,13.5,34.1,13.2,34.1L13.2,34.1z
	 M18.4,29.9c-1.8,0-2.6,1.3-2.6,2.7c0,1.3,0.9,2.7,2.6,2.7c1.7,0,2.6-1.4,2.6-2.7C21,31.2,20.1,29.9,18.4,29.9L18.4,29.9z
	 M18.4,34.2c-1,0-1.4-0.8-1.4-1.6c0-0.8,0.5-1.6,1.4-1.6c1,0,1.4,0.8,1.4,1.6C19.8,33.4,19.4,34.2,18.4,34.2L18.4,34.2z M23.1,31
	h2.1c0.1,0,0.2-0.1,0.2-0.1v-0.8c0-0.1-0.1-0.1-0.2-0.1h-3.1c-0.1,0-0.2,0.1-0.2,0.1v5c0,0.1,0.1,0.1,0.2,0.1H23
	c0.1,0,0.2-0.1,0.2-0.1V31L23.1,31z M28.6,29.9c-1.7,0-2.6,1.3-2.6,2.7c0,1.3,0.9,2.7,2.6,2.7c1.7,0,2.6-1.4,2.6-2.7
	C31.2,31.2,30.3,29.9,28.6,29.9L28.6,29.9z M28.6,34.2c-1,0-1.4-0.8-1.4-1.6c0-0.8,0.5-1.6,1.4-1.6c1,0,1.4,0.8,1.4,1.6
	C30,33.4,29.5,34.2,28.6,34.2L28.6,34.2z M35.2,35.2v0.6c0,0.1,0.1,0.1,0.2,0.1h0.8c0.1,0,0.2-0.1,0.2-0.1v-1.5
	c0-0.1-0.1-0.1-0.2-0.1h-0.4l-1.7-4.3c0-0.1-0.2-0.1-0.3,0c-0.2,0.6-0.5,1.3-0.8,2c-0.3,0.8-0.6,1.5-0.9,2.3h-0.4
	c-0.1,0-0.2,0.1-0.2,0.1v1.5c0,0.1,0.1,0.1,0.2,0.1h0.8c0.1,0,0.2-0.1,0.2-0.1v-0.6H35.2L35.2,35.2z M34,32.5l0.3,0.8l0.3,0.9h-1.2
	L34,32.5L34,32.5z M40,29.9c-0.1,0-0.2,0.1-0.2,0.1v2H38v-2c0-0.1-0.1-0.1-0.2-0.1H37c-0.1,0-0.2,0.1-0.2,0.1v5
	c0,0.1,0.1,0.1,0.2,0.1h0.8c0.1,0,0.2-0.1,0.2-0.1v-2h1.8v2c0,0.1,0.1,0.1,0.2,0.1h0.8c0.1,0,0.2-0.1,0.2-0.1v-5
	c0-0.1-0.1-0.1-0.2-0.1H40L40,29.9z M43.9,33.1h0.4v1.9c0,0.1,0.1,0.1,0.2,0.1h0.8c0.1,0,0.2-0.1,0.2-0.1v-5c0-0.1-0.1-0.1-0.2-0.1
	h-1.6c-0.4,0-1.8,0-1.8,1.6c0,0.8,0.5,1.2,0.9,1.4c-0.3,0.7-0.6,1.4-1,2.1c0,0.1,0,0.2,0.2,0.2h0.9c0.1,0,0.1-0.1,0.1-0.1L43.9,33.1
	L43.9,33.1z M44.3,32.2h-0.7c-0.2,0-0.7-0.1-0.7-0.6c0-0.5,0.5-0.6,0.7-0.6h0.7V32.2L44.3,32.2z M48.4,33.1h0.4v1.9
	c0,0.1,0.1,0.1,0.2,0.1h0.8c0.1,0,0.2-0.1,0.2-0.1v-5c0-0.1-0.1-0.1-0.2-0.1h-1.6c-0.4,0-1.8,0-1.8,1.6c0,0.8,0.5,1.2,0.9,1.4
	c-0.3,0.7-0.6,1.4-1,2.1c0,0.1,0,0.2,0.2,0.2h0.9c0.1,0,0.1-0.1,0.1-0.1L48.4,33.1L48.4,33.1z M48.8,32.2h-0.7
	c-0.2,0-0.7-0.1-0.7-0.6c0-0.5,0.5-0.6,0.7-0.6h0.7V32.2L48.8,32.2z M2.6,41.7c-0.8,0-1.5-0.6-1.5-1.6c0-0.9,0.6-1.6,1.5-1.6
	c0.4,0,0.8,0.2,1.1,0.5c0.1,0,0.1,0,0.2,0l0.6-0.6c0,0,0-0.1,0-0.2c-0.5-0.5-1.1-0.8-1.9-0.8c-1.5,0-2.6,1.2-2.6,2.7
	c0,1.6,1.2,2.7,2.6,2.7c0.7,0,1.4-0.3,1.8-0.8c0.1-0.1,0.1-0.2,0-0.2l-0.6-0.6c-0.1,0-0.2,0-0.2,0C3.4,41.6,3,41.7,2.6,41.7
	L2.6,41.7z M8.2,37.7c0-0.1-0.1-0.1-0.2-0.1H5.1C5,37.6,5,37.6,5,37.7v0.8c0,0.1,0.1,0.1,0.2,0.1H6v4.1c0,0.1,0,0.1,0.2,0.1H7
	c0.1,0,0.2-0.1,0.2-0.1v-4.1H8c0.1,0,0.2-0.1,0.2-0.1V37.7L8.2,37.7z M11.3,37.4c-1.8,0-2.6,1.3-2.6,2.7c0,1.3,0.9,2.7,2.6,2.7
	c1.7,0,2.6-1.4,2.6-2.7C13.9,38.8,13,37.4,11.3,37.4L11.3,37.4z M11.3,41.8c-1,0-1.4-0.8-1.4-1.6c0-0.8,0.5-1.6,1.4-1.6
	c1,0,1.4,0.8,1.4,1.6C12.7,41,12.2,41.8,11.3,41.8L11.3,41.8z M17.4,42.7c0,0.1,0.1,0.1,0.1,0.1h0.9c0.1,0,0.2-0.1,0.2-0.2l-2-5.1
	c-0.1-0.1-0.2-0.1-0.3,0l-2,5.1c0,0.1,0,0.2,0.1,0.2h0.9c0.1,0,0.1,0,0.2-0.1c0.3-0.9,0.6-1.7,0.9-2.6L17.4,42.7L17.4,42.7z
	 M19.1,42.6c0,0.1,0,0.1,0.2,0.1h0.8c0,0,0.1,0,0.1-0.1l0,0l2.2-3.3v3.2c0,0.1,0.1,0.1,0.2,0.1h0.8c0.1,0,0.2-0.1,0.2-0.1v-5
	c0-0.1-0.1-0.1-0.2-0.1h-0.8c0,0-0.1,0-0.1,0l-1,1.5c-0.4,0.6-0.8,1.1-1.1,1.7v-3.1c0-0.1-0.1-0.1-0.2-0.1h-0.8
	c-0.1,0-0.2,0.1-0.2,0.1V42.6L19.1,42.6z M28.2,42.8v0.6c0,0.1,0.1,0.1,0.2,0.1h0.8c0.1,0,0.2-0.1,0.2-0.1v-1.5
	c0-0.1-0.1-0.1-0.2-0.1h-0.3v-4.1c0-0.1-0.1-0.1-0.2-0.1h-0.8c-0.1,0-0.2,0.1-0.2,0.1v4h-1.7v-4c0-0.1-0.1-0.1-0.2-0.1h-0.8
	c-0.1,0-0.2,0.1-0.2,0.1v5c0,0.1,0.1,0.1,0.2,0.1H28.2L28.2,42.8z M32.6,42.7L32.6,42.7c0,0,0.1,0.1,0.1,0.1h0.9
	c0.1,0,0.2-0.1,0.1-0.2l-2-5.1c-0.1-0.1-0.2-0.1-0.3,0c-0.7,1.7-1.4,3.5-2,5.1c0,0.1,0,0.2,0.1,0.2h0.9c0.1,0,0.1,0,0.2-0.1v0
	l0.2-0.5h1.5L32.6,42.7L32.6,42.7z M31.4,40.5c0.1-0.2,0.1-0.5,0.2-0.7c0,0.3,0.1,0.5,0.2,0.7l0.3,0.8h-0.9L31.4,40.5L31.4,40.5z
	 M38.7,37.5H37c-0.1,0-0.2,0.1-0.2,0.1v5c0,0.1,0.1,0.1,0.2,0.1h0.8c0.1,0,0.2-0.1,0.2-0.1v-1.9h0.7c0.1,0,1.8,0,1.8-1.6
	C40.5,37.6,38.9,37.5,38.7,37.5L38.7,37.5z M38.7,39.6H38v-1h0.7c0.1,0,0.7,0,0.7,0.5C39.4,39.6,38.8,39.6,38.7,39.6L38.7,39.6z
	 M43.7,37.4c-1.8,0-2.6,1.3-2.6,2.7c0,1.3,0.9,2.7,2.6,2.7c1.7,0,2.6-1.4,2.6-2.7C46.3,38.8,45.4,37.4,43.7,37.4L43.7,37.4z
	 M43.7,41.8c-1,0-1.4-0.8-1.4-1.6c0-0.8,0.5-1.6,1.4-1.6c1,0,1.4,0.8,1.4,1.6C45.2,41,44.7,41.8,43.7,41.8L43.7,41.8z M49.8,41.7
	c-0.8,0-1.5-0.6-1.5-1.6c0-0.9,0.6-1.6,1.5-1.6c0.4,0,0.8,0.2,1.1,0.5c0.1,0,0.1,0,0.2,0l0.6-0.6c0,0,0-0.1,0-0.2
	c-0.5-0.5-1.1-0.8-1.9-0.8c-1.5,0-2.6,1.2-2.6,2.7c0,1.6,1.2,2.7,2.6,2.7c0.7,0,1.4-0.3,1.8-0.8c0.1-0.1,0.1-0.2,0-0.2l-0.6-0.6
	c-0.1,0-0.2,0-0.2,0C50.6,41.6,50.2,41.7,49.8,41.7L49.8,41.7z M55,41.7c-0.8,0-1.5-0.6-1.5-1.6c0-0.9,0.6-1.6,1.5-1.6
	c0.4,0,0.8,0.2,1.1,0.5c0.1,0,0.1,0,0.2,0l0.6-0.6c0,0,0-0.1,0-0.2c-0.5-0.5-1.1-0.8-1.9-0.8c-1.5,0-2.6,1.2-2.6,2.7
	c0,1.6,1.2,2.7,2.6,2.7c0.7,0,1.4-0.3,1.8-0.8c0.1-0.1,0.1-0.2,0-0.2l-0.6-0.6c-0.1,0-0.2,0-0.2,0C55.8,41.6,55.4,41.7,55,41.7
	L55,41.7z M57.9,42.6c0,0.1,0,0.1,0.2,0.1h0.8c0,0,0.1,0,0.1-0.1l0,0l2.2-3.3v3.2c0,0.1,0.1,0.1,0.2,0.1h0.8c0.1,0,0.2-0.1,0.2-0.1
	v-5c0-0.1-0.1-0.1-0.2-0.1h-0.8c0,0-0.1,0-0.1,0l-1,1.5c-0.4,0.6-0.8,1.1-1.1,1.7v-3.1c0-0.1-0.1-0.1-0.2-0.1H58
	c-0.1,0-0.2,0.1-0.2,0.1V42.6L57.9,42.6z M63.5,42.6c0,0.1,0,0.1,0.2,0.1h0.8c0,0,0.1,0,0.1-0.1l0,0l2.2-3.3v3.2
	c0,0.1,0.1,0.1,0.2,0.1h0.8c0.1,0,0.2-0.1,0.2-0.1v-5c0-0.1-0.1-0.1-0.2-0.1h-0.8c0,0-0.1,0-0.1,0l-1,1.5c-0.4,0.6-0.8,1.1-1.1,1.7
	v-3.1c0-0.1-0.1-0.1-0.2-0.1h-0.8c-0.1,0-0.2,0.1-0.2,0.1V42.6z"/>
</svg>
