<?xml version="1.0" encoding="utf-8"?>
<!-- Generator: Adobe Illustrator 19.0.1, SVG Export Plug-In . SVG Version: 6.00 Build 0)  -->
<svg version="1.1" id="Слой_1" xmlns="http://www.w3.org/2000/svg" xmlns:xlink="http://www.w3.org/1999/xlink" x="0px" y="0px"
	 viewBox="0 0 39.5 32.6" style="enable-background:new 0 0 39.5 32.6;" xml:space="preserve">
<style type="text/css">
	.st0{fill-rule:evenodd;clip-rule:evenodd;fill:#FFFFFF;}
</style>
<path class="st0" d="M20.1,30.1C20.1,30,20.1,30,20.1,30.1C20.1,30,20.1,30,20.1,30.1c-0.2,0.1-0.3,0.1-0.3,0.1c0,0-0.2,0-0.2-0.2
	c0-0.1,0-0.1,0-0.1c-0.1,0-0.1,0.1-0.1,0.2c0,0.1,0.1,0.2,0.3,0.2C19.9,30.3,20,30.2,20.1,30.1L20.1,30.1z M39.5,32.3L39.5,32.3
	C39.4,32.3,39.4,32.3,39.5,32.3c0,0-0.1,0-0.1,0c-0.1,0-0.1-0.1-0.1-0.1c0-0.1,0-0.3,0-0.5v-1.1c0-0.1,0-0.1-0.1,0
	c-0.5,0.7-0.9,1.1-1.2,1.5c0,0,0,0,0,0c0-0.8,0-1.2,0-1.3c0-0.1,0-0.1,0.1-0.1c0,0,0,0,0.1,0c0,0,0,0,0,0c0,0,0,0,0,0
	c-0.1,0-0.2,0-0.2,0c0,0-0.2,0-0.3,0c0,0,0,0,0,0c0,0,0,0,0,0c0,0,0.1,0,0.1,0c0.1,0,0.1,0.1,0.1,0.1c0,0.1,0,0.1,0,0.5v1.1
	c0,0.1,0,0.1,0.1,0l0,0l0.2-0.3c0.3-0.4,0.6-0.8,1-1.2c0,0,0,0,0,0v0.7c0,0.2,0,0.4,0,0.5c0,0.1,0,0.1-0.1,0.1c0,0-0.1,0-0.1,0
	c0,0,0,0,0,0c0,0,0,0,0,0c0.1,0,0.2,0,0.2,0C39.1,32.4,39.3,32.4,39.5,32.3C39.4,32.4,39.4,32.4,39.5,32.3L39.5,32.3z M11.7,30.1
	C11.8,30,11.8,30,11.7,30.1C11.7,30,11.7,30,11.7,30.1c-0.2,0.1-0.3,0.1-0.3,0.1c0,0-0.2,0-0.2-0.2c0-0.1,0-0.1,0-0.1
	c-0.1,0-0.1,0.1-0.1,0.2c0,0.1,0.1,0.2,0.3,0.2C11.5,30.3,11.7,30.2,11.7,30.1L11.7,30.1z M35.3,32.3C35.3,32.4,35.4,32.4,35.3,32.3
	L35.3,32.3l0.3-0.3c0.3-0.4,0.6-0.8,1-1.2c0,0,0,0,0,0v0.7c0,0.2,0,0.4,0,0.5c0,0.1,0,0.1-0.1,0.1c0,0-0.1,0-0.1,0c0,0,0,0,0,0
	c0,0,0,0,0,0c0.1,0,0.2,0,0.2,0c0,0,0.2,0,0.3,0c0,0,0,0,0,0c0,0,0,0,0,0c0,0-0.1,0-0.1,0c-0.1,0-0.1-0.1-0.1-0.1c0-0.1,0-0.3,0-0.5
	v-1.1c0-0.1,0-0.1-0.1,0c-0.5,0.7-0.9,1.1-1.2,1.5c0,0,0,0,0,0c0-0.8,0-1.2,0-1.3c0-0.1,0-0.1,0.1-0.1c0,0,0,0,0.1,0c0,0,0,0,0,0
	c0,0,0,0,0,0c-0.1,0-0.2,0-0.2,0c0,0-0.2,0-0.3,0c0,0,0,0,0,0c0,0,0,0,0,0c0,0,0.1,0,0.1,0c0.1,0,0.1,0.1,0.1,0.1c0,0.1,0,0.1,0,0.5
	V32.3L35.3,32.3z M34.2,32.2C34.2,32.2,34.2,32.2,34.2,32.2c-0.4,0.1-0.7,0.1-1,0.1c0,0,0-0.1,0-0.1c0-0.1,0-0.3,0-0.5
	c0-0.8,0-0.9,0-1c0-0.1,0-0.1,0.1-0.1c0,0,0,0,0.1,0c0,0,0,0,0,0c0,0,0,0,0,0c-0.1,0-0.2,0-0.2,0c0,0-0.2,0-0.3,0c0,0,0,0,0,0
	c0,0,0,0,0,0c0,0,0.1,0,0.1,0c0.1,0,0.1,0.1,0.1,0.1c0,0.1,0,0.1,0,0.5v0.4c0,0.2,0,0.4,0,0.5c0,0.1,0,0.1-0.1,0.1c0,0-0.1,0-0.1,0
	c0,0,0,0,0,0c0,0,0,0,0,0c0.1,0,0.2,0,0.2,0c0,0,0.1,0,0.2,0h0.9c0.1,0,0.2,0,0.2,0h0.1c0.2,0,0.2,0.1,0.2,0.2v0c0,0,0,0,0,0h0h0
	c0,0,0,0,0,0c0,0,0-0.2,0.1-0.3c0,0,0,0,0,0c0,0-0.1,0-0.1,0c0,0-0.2,0-0.2-0.2c0-0.1,0-0.3,0-0.5v-0.4c0-0.4,0-0.5,0-0.5
	c0-0.1,0-0.1,0.1-0.1c0,0,0,0,0.1,0c0,0,0,0,0,0c0,0,0,0,0,0c-0.1,0-0.2,0-0.2,0s-0.2,0-0.3,0c0,0,0,0,0,0c0,0,0,0,0,0
	c0,0,0.1,0,0.1,0c0.1,0,0.1,0.1,0.1,0.1c0,0.1,0,0.1,0,0.5v0.4C34.2,31.9,34.2,32.1,34.2,32.2L34.2,32.2z M31.9,31.5l-0.2-0.7
	c0,0,0,0,0,0c0,0,0,0,0,0l-0.2,0.7c0,0,0,0,0,0L31.9,31.5C31.9,31.5,31.9,31.5,31.9,31.5L31.9,31.5z M32.6,32.3
	C32.6,32.4,32.6,32.4,32.6,32.3c-0.1,0-0.3,0-0.4,0c0,0-0.1,0-0.1,0c0,0,0,0,0,0c0,0,0,0,0,0c0,0,0,0,0,0l-0.2-0.6c0,0,0,0,0,0h-0.5
	c0,0,0,0,0,0l-0.1,0.4c0,0.1,0,0.1,0,0.2c0,0,0.1,0.1,0.1,0.1h0c0,0,0,0,0,0c0,0,0,0,0,0c-0.1,0-0.2,0-0.2,0c0,0-0.2,0-0.3,0
	c0,0,0,0,0,0c0,0,0,0,0,0c0,0,0.1,0,0.1,0c0.1,0,0.2-0.1,0.2-0.2l0.6-1.5c0-0.1,0-0.1,0.1-0.1c0,0,0,0,0.1,0.1
	c0,0.1,0.4,1.1,0.6,1.5c0.1,0.2,0.2,0.3,0.2,0.3C32.5,32.3,32.6,32.3,32.6,32.3C32.6,32.3,32.6,32.3,32.6,32.3L32.6,32.3z
	 M29.7,31.6c0,0.2,0,0.4,0,0.5c0,0.1,0,0.1-0.1,0.1c0,0-0.1,0-0.1,0c0,0,0,0,0,0c0,0,0,0,0,0c0.1,0,0.2,0,0.2,0c0,0,0.2,0,0.3,0
	c0,0,0,0,0,0c0,0,0,0,0,0c0,0-0.1,0-0.1,0c-0.1,0-0.1-0.1-0.1-0.1c0-0.1,0-0.3,0-0.5v-1c0,0,0,0,0,0c0,0,0.1,0,0.1,0
	c0.1,0,0.2,0,0.3,0.1c0.1,0.1,0.1,0.3,0.1,0.4c0,0.2-0.2,0.4-0.4,0.4c-0.1,0-0.1,0-0.1,0c0,0,0,0,0,0c0,0,0,0,0.1,0
	c0.4,0,0.6-0.2,0.6-0.6c0-0.1-0.1-0.2-0.1-0.3c0,0-0.2-0.1-0.5-0.1c-0.1,0-0.3,0-0.3,0c0,0-0.2,0-0.3,0c0,0,0,0,0,0c0,0,0,0,0,0
	c0,0,0.1,0,0.1,0c0.1,0,0.1,0.1,0.1,0.1c0,0.1,0,0.1,0,0.5V31.6L29.7,31.6z M28.3,30.6C28.3,30.6,28.3,30.6,28.3,30.6
	c0.1,0,0.3,0,0.3,0c0.1,0,0.2,0,0.2,0.1c0,0,0,0.1,0,0.1c0,0,0,0,0,0c0,0,0,0,0,0c0,0,0-0.1,0-0.2c0-0.1,0-0.1,0-0.1c0,0,0,0,0,0
	c0,0,0,0,0,0c0,0-0.1,0-0.1,0c0,0-0.3,0-0.6,0c0,0-0.2,0-0.3,0c0,0,0,0,0,0c0,0,0,0,0,0c0,0,0.1,0,0.1,0c0.1,0,0.1,0.1,0.1,0.1
	c0,0,0,0.1,0,0.6v0.4c0,0.3,0,0.5,0,0.6c0,0.1,0,0.1-0.1,0.1c0,0-0.1,0-0.1,0c0,0,0,0,0,0c0,0,0,0,0,0c0.1,0,0.2,0,0.2,0
	c0.1,0,0.2,0,0.6,0c0.1,0,0.1,0,0.1-0.1c0-0.1,0-0.2,0-0.2c0,0,0,0,0,0c0,0,0,0,0,0c0,0.1,0,0.2-0.1,0.2c-0.1,0-0.2,0-0.2,0
	c-0.2,0-0.3,0-0.3-0.2v-0.6c0,0,0,0,0,0c0,0,0.3,0,0.4,0c0.1,0,0.1,0.1,0.1,0.1c0,0,0,0.1,0,0.1c0,0,0,0,0,0c0,0,0,0,0,0
	c0-0.1,0-0.3,0-0.3c0,0,0,0,0,0c0,0,0,0,0,0c0,0-0.1,0-0.1,0c-0.1,0-0.4,0-0.4,0c0,0,0,0,0,0V30.6L28.3,30.6z M27.1,32.2
	C27.1,32.2,27.1,32.2,27.1,32.2l-0.6-1.4c0,0,0,0-0.1,0l-0.4,1.2c0,0.1,0,0.1,0,0.2v0C26.3,32.3,26.7,32.3,27.1,32.2L27.1,32.2z
	 M27.6,32.3c0,0.1-0.1,0.3-0.1,0.3c0,0,0,0,0,0c0,0,0,0,0,0v0c0-0.1,0-0.2-0.2-0.2l-0.4,0h-0.7l-0.4,0c-0.2,0-0.2,0-0.2,0.1
	c0,0,0,0.1,0,0.1c0,0,0,0,0,0c0,0,0,0,0,0c0,0,0-0.3-0.1-0.3c0,0,0,0,0,0c0,0,0.1,0,0.1,0c0.1,0,0.2-0.1,0.2-0.2l0.6-1.5
	c0-0.1,0-0.1,0.1-0.1c0,0,0,0,0.1,0.1c0,0.1,0.4,1.1,0.6,1.5c0,0.1,0.1,0.1,0.1,0.2c0.1,0.1,0.1,0.1,0.2,0.1
	C27.6,32.2,27.6,32.2,27.6,32.3C27.6,32.2,27.6,32.2,27.6,32.3L27.6,32.3z M24.6,30.6C24.6,30.6,24.6,30.6,24.6,30.6
	c0.1,0,0.3,0,0.3,0c0.1,0,0.2,0,0.2,0.1c0,0,0,0.1,0,0.1c0,0,0,0,0,0c0,0,0,0,0,0c0,0,0-0.1,0-0.2c0-0.1,0-0.1,0-0.1c0,0,0,0,0,0
	c0,0,0,0,0,0c0,0-0.1,0-0.1,0c0,0-0.3,0-0.6,0c0,0-0.2,0-0.3,0c0,0,0,0,0,0c0,0,0,0,0,0c0,0,0.1,0,0.1,0c0.1,0,0.1,0.1,0.1,0.1
	c0,0,0,0.1,0,0.6v0.4c0,0.3,0,0.5,0,0.6c0,0.1,0,0.1-0.1,0.1c0,0-0.1,0-0.1,0c0,0,0,0,0,0c0,0,0,0,0,0c0.1,0,0.2,0,0.2,0
	c0.1,0,0.2,0,0.6,0c0.1,0,0.1,0,0.1-0.1c0-0.1,0-0.2,0-0.2c0,0,0,0,0,0c0,0,0,0,0,0c0,0.1,0,0.2-0.1,0.2c-0.1,0-0.2,0-0.2,0
	c-0.2,0-0.3,0-0.3-0.2v-0.6c0,0,0,0,0,0c0,0,0.3,0,0.4,0c0.1,0,0.1,0.1,0.1,0.1c0,0,0,0.1,0,0.1c0,0,0,0,0,0c0,0,0,0,0,0
	c0-0.1,0-0.3,0-0.3c0,0,0,0,0,0c0,0,0,0,0,0c0,0-0.1,0-0.1,0c-0.1,0-0.4,0-0.4,0c0,0,0,0,0,0V30.6L24.6,30.6z M23,32.1
	c0.2,0,0.6-0.2,0.6-0.7c0-0.4-0.3-0.6-0.6-0.7c0,0,0,0,0,0c0,0,0,0,0,0.1l0,0v0.8C23,31.8,23,32,23,32.1C23,32.1,23,32.1,23,32.1
	L23,32.1z M22.8,30.8L22.8,30.8C22.8,30.7,22.7,30.7,22.8,30.8c-0.4-0.1-0.6,0.2-0.6,0.6c0,0.4,0.3,0.6,0.6,0.7c0,0,0,0,0,0
	c0-0.1,0-0.3,0-0.4V30.8L22.8,30.8z M23,32.2L23,32.2c0,0.1,0,0.2,0.1,0.2c0,0,0.1,0,0.1,0c0,0,0,0,0,0c0,0,0,0,0,0
	c-0.1,0-0.3,0-0.3,0s-0.2,0-0.2,0c0,0,0,0,0,0c0,0,0,0,0,0c0,0,0.1,0,0.1,0c0.1,0,0.1-0.1,0.1-0.2l0,0c-0.6,0-0.9-0.4-0.9-0.8
	c0-0.3,0.3-0.7,0.8-0.8l0,0c0-0.1,0-0.1-0.1-0.2c0,0-0.1,0-0.1,0c0,0,0,0,0,0c0,0,0,0,0,0c0.1,0,0.2,0,0.2,0s0.2,0,0.2,0
	c0,0,0,0,0,0c0,0,0,0,0,0c0,0,0,0-0.1,0c-0.1,0-0.1,0.1-0.1,0.2l0,0c0.5,0,0.8,0.3,0.8,0.7C23.8,31.8,23.5,32.1,23,32.2L23,32.2z
	 M18.9,32.3C18.9,32.4,19,32.4,18.9,32.3L18.9,32.3c0.2-0.1,0.2-0.2,0.3-0.3c0.3-0.4,0.6-0.8,1-1.2c0,0,0,0,0,0v0.7
	c0,0.2,0,0.4,0,0.5c0,0.1,0,0.1-0.1,0.1c0,0-0.1,0-0.1,0c0,0,0,0,0,0c0,0,0,0,0,0c0.1,0,0.2,0,0.2,0c0,0,0.2,0,0.3,0c0,0,0,0,0,0
	c0,0,0,0,0,0c0,0-0.1,0-0.1,0c-0.1,0-0.1-0.1-0.1-0.1c0-0.1,0-0.3,0-0.5v-1.1c0-0.1,0-0.1-0.1,0c-0.5,0.7-0.9,1.1-1.2,1.5
	c0,0,0,0,0,0c0-0.8,0-1.2,0-1.3c0-0.1,0-0.1,0.1-0.1c0,0,0,0,0.1,0c0,0,0,0,0,0c0,0,0,0,0,0c-0.1,0-0.2,0-0.2,0c0,0-0.2,0-0.3,0
	c0,0,0,0,0,0c0,0,0,0,0,0c0,0,0.1,0,0.1,0c0.1,0,0.1,0.1,0.1,0.1c0,0.1,0,0.1,0,0.5V32.3L18.9,32.3z M18.2,31.5
	c0-0.6-0.4-0.9-0.8-0.9c-0.4,0-0.7,0.3-0.7,0.8c0,0.6,0.3,0.9,0.8,0.9C17.7,32.3,18.2,32.2,18.2,31.5L18.2,31.5z M18.4,31.4
	c0,0.6-0.4,1-1,1c-0.7,0-1-0.5-1-1c0-0.4,0.3-1,1-1C18,30.5,18.4,30.8,18.4,31.4L18.4,31.4z M14.9,31.6c0,0.2,0,0.4,0,0.5
	c0,0.1,0,0.1-0.1,0.1c0,0-0.1,0-0.1,0c0,0,0,0,0,0c0,0,0,0,0,0c0.1,0,0.2,0,0.2,0c0,0,0.2,0,0.3,0c0,0,0,0,0,0c0,0,0,0,0,0
	c0,0-0.1,0-0.1,0c-0.1,0-0.1-0.1-0.1-0.1c0-0.1,0-0.3,0-0.5v-0.2h0c0.1,0.1,0.6,0.7,0.8,0.8c0.1,0.1,0.2,0.1,0.3,0.2
	c0.1,0,0.1,0,0.2,0h0.1c0,0,0.1,0,0.1,0c0,0,0,0,0,0s-0.1,0-0.2,0c-0.1,0-0.2-0.1-0.4-0.3c-0.1-0.1-0.6-0.6-0.7-0.7
	c0.1-0.1,0.5-0.5,0.5-0.5c0.1-0.1,0.2-0.2,0.3-0.2c0,0,0.1,0,0.1,0c0,0,0,0,0,0c0,0,0,0,0,0c-0.1,0-0.2,0-0.2,0c-0.1,0-0.1,0-0.2,0
	c0,0,0,0,0,0c0,0,0,0,0,0c0,0,0,0,0,0.1c0,0-0.1,0.1-0.1,0.2c-0.1,0.1-0.5,0.6-0.6,0.6h0v-0.1c0-0.4,0-0.5,0-0.5
	c0-0.1,0-0.1,0.1-0.1c0,0,0,0,0.1,0c0,0,0,0,0,0c0,0,0,0,0,0c-0.1,0-0.2,0-0.2,0c0,0-0.2,0-0.3,0c0,0,0,0,0,0c0,0,0,0,0,0
	c0,0,0.1,0,0.1,0c0.1,0,0.1,0.1,0.1,0.1c0,0.1,0,0.1,0,0.5V31.6L14.9,31.6z M12.6,31.4c0,0.6,0.4,1,1.1,1c0.2,0,0.3,0,0.4-0.1
	c0,0,0,0,0.1-0.1c0-0.1,0.1-0.3,0.1-0.3c0,0,0,0,0,0c0,0,0,0,0,0c0,0,0,0.2-0.1,0.2c-0.1,0.1-0.2,0.1-0.4,0.1
	c-0.5,0-0.9-0.4-0.9-0.9c0-0.4,0.2-0.8,0.8-0.8c0.3,0,0.6,0.1,0.6,0.4c0,0,0,0.1,0,0.1c0,0,0,0,0-0.2c0-0.1,0-0.3,0-0.3c0,0,0,0,0,0
	c-0.1,0-0.3-0.1-0.6-0.1C12.9,30.5,12.6,31,12.6,31.4L12.6,31.4z M10.5,32.3C10.5,32.4,10.6,32.4,10.5,32.3L10.5,32.3
	c0.2-0.1,0.2-0.2,0.3-0.3c0.3-0.4,0.6-0.8,1-1.2c0,0,0,0,0,0v0.7c0,0.2,0,0.4,0,0.5c0,0.1,0,0.1-0.1,0.1c0,0-0.1,0-0.1,0
	c0,0,0,0,0,0c0,0,0,0,0,0c0.1,0,0.2,0,0.2,0c0,0,0.2,0,0.3,0c0,0,0,0,0,0c0,0,0,0,0,0c0,0-0.1,0-0.1,0c-0.1,0-0.1-0.1-0.1-0.1
	c0-0.1,0-0.3,0-0.5v-1.1c0-0.1,0-0.1-0.1,0c-0.5,0.7-0.9,1.1-1.2,1.5c0,0,0,0,0,0c0-0.8,0-1.2,0-1.3c0-0.1,0-0.1,0.1-0.1
	c0,0,0,0,0.1,0c0,0,0,0,0,0c0,0,0,0,0,0c-0.1,0-0.2,0-0.2,0c0,0-0.2,0-0.3,0c0,0,0,0,0,0c0,0,0,0,0,0c0,0,0.1,0,0.1,0
	c0.1,0,0.1,0.1,0.1,0.1c0,0.1,0,0.1,0,0.5V32.3L10.5,32.3z M8.2,32.3C8.2,32.4,8.2,32.4,8.2,32.3L8.2,32.3l0.3-0.3
	c0.3-0.4,0.6-0.8,1-1.2c0,0,0,0,0,0v0.7c0,0.2,0,0.4,0,0.5c0,0.1,0,0.1-0.1,0.1c0,0-0.1,0-0.1,0c0,0,0,0,0,0c0,0,0,0,0,0
	c0.1,0,0.2,0,0.2,0c0,0,0.2,0,0.3,0c0,0,0,0,0,0c0,0,0,0,0,0c0,0-0.1,0-0.1,0c-0.1,0-0.1-0.1-0.1-0.1c0-0.1,0-0.3,0-0.5v-1.1
	c0-0.1,0-0.1-0.1,0c-0.5,0.7-0.9,1.1-1.2,1.5c0,0,0,0,0,0c0-0.8,0-1.2,0-1.3c0-0.1,0-0.1,0.1-0.1c0,0,0,0,0.1,0c0,0,0,0,0,0
	c0,0,0,0,0,0c-0.1,0-0.2,0-0.2,0c0,0-0.2,0-0.3,0c0,0,0,0,0,0c0,0,0,0,0,0c0,0,0.1,0,0.1,0c0.1,0,0.1,0.1,0.1,0.1c0,0.1,0,0.1,0,0.5
	V32.3L8.2,32.3z M5.9,31.4c0,0.6,0.4,1,1.1,1c0.2,0,0.3,0,0.4-0.1c0,0,0,0,0.1-0.1c0-0.1,0.1-0.3,0.1-0.3c0,0,0,0,0,0c0,0,0,0,0,0
	c0,0,0,0.2-0.1,0.2c-0.1,0.1-0.2,0.1-0.4,0.1c-0.5,0-0.9-0.4-0.9-0.9c0-0.4,0.2-0.8,0.8-0.8c0.3,0,0.6,0.1,0.6,0.4c0,0,0,0.1,0,0.1
	c0,0,0,0,0-0.2c0-0.1,0-0.3,0-0.3c0,0,0,0,0,0c-0.1,0-0.3-0.1-0.6-0.1C6.1,30.5,5.9,31,5.9,31.4L5.9,31.4z M3.9,31.4
	c0,0.6,0.4,1,1.1,1c0.2,0,0.3,0,0.4-0.1c0,0,0,0,0.1-0.1c0-0.1,0.1-0.3,0.1-0.3c0,0,0,0,0,0c0,0,0,0,0,0c0,0,0,0.2-0.1,0.2
	c-0.1,0.1-0.2,0.1-0.4,0.1c-0.5,0-0.9-0.4-0.9-0.9c0-0.4,0.2-0.8,0.8-0.8c0.3,0,0.6,0.1,0.6,0.4c0,0,0,0.1,0,0.1c0,0,0,0,0-0.2
	c0-0.1,0-0.3,0-0.3c0,0,0,0,0,0c-0.1,0-0.3-0.1-0.6-0.1C4.2,30.5,3.9,31,3.9,31.4L3.9,31.4z M3.3,31.5c0-0.6-0.4-0.9-0.8-0.9
	c-0.4,0-0.7,0.3-0.7,0.8c0,0.6,0.3,0.9,0.8,0.9C2.8,32.3,3.3,32.2,3.3,31.5L3.3,31.5z M3.5,31.4c0,0.6-0.4,1-1,1c-0.7,0-1-0.5-1-1
	c0-0.4,0.3-1,1-1C3.1,30.5,3.5,30.8,3.5,31.4L3.5,31.4z M0.3,31.6c0,0.2,0,0.4,0,0.5c0,0.1,0,0.1-0.1,0.1c0,0-0.1,0-0.1,0
	c0,0,0,0,0,0c0,0,0,0,0,0c0.1,0,0.2,0,0.2,0c0,0,0.2,0,0.3,0c0,0,0,0,0,0c0,0,0,0,0,0c0,0-0.1,0-0.1,0c-0.1,0-0.1-0.1-0.1-0.1
	c0-0.1,0-0.3,0-0.5v-1c0,0,0,0,0,0c0,0,0.1,0,0.1,0c0.1,0,0.2,0,0.3,0.1c0.1,0.1,0.1,0.3,0.1,0.4c0,0.2-0.2,0.4-0.4,0.4
	c-0.1,0-0.1,0-0.1,0c0,0,0,0,0,0c0,0,0,0,0.1,0c0.4,0,0.6-0.2,0.6-0.6c0-0.1-0.1-0.2-0.1-0.3c0,0-0.2-0.1-0.5-0.1
	c-0.1,0-0.3,0-0.3,0c0,0-0.2,0-0.3,0c0,0,0,0,0,0c0,0,0,0,0,0c0,0,0.1,0,0.1,0c0.1,0,0.1,0.1,0.1,0.1c0,0.1,0,0.1,0,0.5V31.6
	L0.3,31.6z M39.2,28.1c0-0.4,0-0.5,0-0.5c0-0.1,0-0.1,0.1-0.1c0,0,0,0,0.1,0c0,0,0,0,0,0c0,0,0,0,0,0c-0.1,0-0.2,0-0.2,0
	c0,0-0.2,0-0.2,0c0,0,0,0,0,0c0,0,0,0,0,0c0,0,0,0,0.1,0c0.1,0,0.1,0.1,0.1,0.1c0,0.1,0,0.1,0,0.5v0.4c0,0.2,0,0.4,0,0.5
	c0,0.1,0,0.1-0.1,0.1c0,0-0.1,0-0.1,0c0,0,0,0,0,0c0,0,0,0,0,0c0.1,0,0.2,0,0.2,0c0,0,0.2,0,0.3,0c0,0,0,0,0,0c0,0,0,0,0,0
	c0,0-0.1,0-0.1,0c-0.1,0-0.1-0.1-0.1-0.1c0-0.1,0-0.3,0-0.5V28.1L39.2,28.1z M38.4,28.8c0-0.2-0.1-0.6-0.5-0.6c-0.1,0-0.1,0-0.1,0.1
	v0.1c0,0.2,0,0.5,0,0.5c0,0.1,0,0.2,0.1,0.2c0.1,0,0.2,0,0.2,0C38.1,29.2,38.4,29.1,38.4,28.8L38.4,28.8z M38.6,28.7
	c0,0.3-0.2,0.5-0.6,0.5c-0.1,0-0.3,0-0.3,0c0,0-0.2,0-0.2,0c0,0,0,0,0,0c0,0,0,0,0,0c0,0,0.1,0,0.1,0c0,0,0.1-0.1,0.1-0.1
	c0-0.1,0-0.3,0-0.5v-0.4c0-0.4,0-0.4,0-0.5c0-0.1,0-0.1-0.1-0.1c0,0-0.1,0-0.1,0c0,0,0,0,0,0c0,0,0,0,0,0c0.1,0,0.2,0,0.2,0
	s0.2,0,0.2,0c0,0,0,0,0,0c0,0,0,0,0,0c0,0,0,0-0.1,0c-0.1,0-0.1,0.1-0.1,0.1l0,0.6c0,0,0,0,0,0c0,0,0.1,0,0.2,0H38
	C38.3,28.2,38.6,28.4,38.6,28.7L38.6,28.7z M35.9,28.5c0,0.2,0,0.4,0,0.5c0,0.1,0,0.1-0.1,0.1c0,0-0.1,0-0.1,0c0,0,0,0,0,0
	c0,0,0,0,0,0c0.1,0,0.2,0,0.2,0c0,0,0.2,0,0.3,0c0,0,0,0,0,0c0,0,0,0,0,0c0,0-0.1,0-0.1,0c-0.1,0-0.1-0.1-0.1-0.1c0-0.1,0-0.3,0-0.5
	v-1c0,0,0,0,0,0c0,0,0.1,0,0.1,0c0.1,0,0.2,0,0.3,0.1c0.1,0.1,0.1,0.3,0.1,0.4c0,0.2-0.2,0.4-0.4,0.4c-0.1,0-0.1,0-0.1,0
	c0,0,0,0,0,0c0,0,0,0,0.1,0c0.4,0,0.6-0.2,0.6-0.6c0-0.1-0.1-0.2-0.1-0.3c0,0-0.2-0.1-0.5-0.1c-0.1,0-0.3,0-0.3,0c0,0-0.2,0-0.3,0
	c0,0,0,0,0,0c0,0,0,0,0,0c0,0,0.1,0,0.1,0c0.1,0,0.1,0.1,0.1,0.1c0,0.1,0,0.1,0,0.5V28.5L35.9,28.5z M34.6,29
	c-0.1,0.2-0.1,0.3-0.2,0.3c-0.1,0-0.2-0.1-0.2-0.2c0,0,0,0,0,0c0,0,0,0,0,0c0,0.1,0,0.2,0,0.3c0,0,0,0,0,0.1c0,0,0.1,0,0.2,0
	C34.4,29.5,34.6,29.3,34.6,29l0.7-1.4c0.1-0.2,0.1-0.2,0.1-0.2c0,0,0.1,0,0.1,0c0,0,0,0,0,0c0,0,0,0,0,0c-0.1,0-0.2,0-0.2,0
	c0,0-0.1,0-0.2,0c0,0-0.1,0-0.1,0c0,0,0,0,0,0c0,0,0.1,0,0.1,0c0,0,0,0,0,0.1l0,0.1c-0.1,0.2-0.3,0.9-0.5,1.2l-0.6-1.2
	c0-0.1-0.1-0.2-0.1-0.2c0,0,0,0,0,0c0,0,0.1,0,0.1,0c0,0,0,0,0,0c0,0,0,0-0.1,0c-0.1,0-0.2,0-0.2,0c0,0-0.2,0-0.3,0c0,0-0.1,0-0.1,0
	c0,0,0,0,0,0c0,0,0.1,0,0.1,0c0.1,0,0.1,0.1,0.2,0.2L34.6,29L34.6,29z M32.7,27.5l0.3,0c0.2,0,0.3,0.1,0.3,0.1l0,0c0,0,0,0,0,0
	c0,0,0,0,0,0c0,0,0-0.2,0-0.3c0,0,0,0,0,0c0,0-0.1,0-0.2,0h-0.9c0,0-0.1,0-0.2,0c-0.1,0-0.1,0-0.1,0c0,0,0,0,0,0
	c0,0-0.1,0.2-0.1,0.3c0,0,0,0,0,0c0,0,0,0,0,0c0,0,0,0,0-0.1c0-0.1,0.1-0.1,0.3-0.1l0.4,0v1c0,0.2,0,0.4,0,0.5c0,0.1,0,0.1-0.1,0.1
	c0,0-0.1,0-0.1,0c0,0,0,0,0,0c0,0,0,0,0,0c0.1,0,0.2,0,0.2,0c0,0,0.2,0,0.3,0c0,0,0,0,0,0c0,0,0,0,0,0c0,0-0.1,0-0.1,0
	c-0.1,0-0.1-0.1-0.1-0.1c0-0.1,0-0.3,0-0.5V27.5L32.7,27.5z M31.5,28.8c0-0.1,0-0.4-0.2-0.5c-0.1-0.1-0.2-0.1-0.4-0.1c0,0,0,0,0,0
	v0.1c0,0.2,0,0.5,0,0.5c0,0.1,0,0.2,0.1,0.2c0.1,0,0.2,0,0.2,0C31.3,29.2,31.5,29.1,31.5,28.8L31.5,28.8z M31.7,28.7
	c0,0.3-0.2,0.5-0.6,0.5c-0.1,0-0.3,0-0.3,0c0,0-0.2,0-0.2,0c0,0,0,0,0,0c0,0,0,0,0,0c0,0,0.1,0,0.1,0c0,0,0.1-0.1,0.1-0.1
	c0-0.1,0-0.3,0-0.5v-0.4l0-0.5c0-0.1,0-0.1-0.1-0.1c0,0-0.1,0-0.1,0c0,0,0,0,0,0c0,0,0,0,0,0c0.1,0,0.2,0,0.2,0c0,0,0.2,0,0.2,0
	c0,0,0,0,0,0c0,0,0,0,0,0c0,0,0,0-0.1,0c-0.1,0-0.1,0.1-0.1,0.1l0,0.6c0,0,0,0,0,0c0,0,0.1,0,0.2,0C31.3,28.2,31.7,28.2,31.7,28.7
	L31.7,28.7z M29.1,28.4l0.2-0.7c0,0,0,0,0,0l0.2,0.7l0,0.1l0.2,0.6c0,0,0,0.1,0,0.1c0,0,0,0,0,0c0,0,0,0,0.1,0c0.2,0,0.4,0,0.4,0
	c0,0,0,0,0,0c0,0,0,0,0,0c0,0-0.1,0-0.1,0c-0.1,0-0.1-0.1-0.2-0.3c-0.2-0.4-0.5-1.4-0.6-1.5c0-0.1,0-0.1-0.1-0.1c0,0,0,0-0.1,0.1
	L28.8,29c0,0.1-0.1,0.2-0.2,0.2c0,0-0.1,0-0.1,0c0,0,0,0,0,0c0,0,0,0,0,0c0.1,0,0.3,0,0.3,0c0,0,0.1,0,0.2,0c0,0,0,0,0,0
	c0,0,0,0,0,0h0c0,0-0.1,0-0.1-0.1c0,0,0-0.1,0-0.2L29.1,28.4L29.1,28.4z M27.8,29L27,27.6c-0.1-0.1-0.1-0.2-0.2-0.2c0,0-0.1,0-0.1,0
	c0,0,0,0,0,0c0,0,0,0,0.1,0c0.1,0,0.3,0,0.3,0c0,0,0.1,0,0.2,0c0,0,0.1,0,0.1,0c0,0,0,0,0,0c0,0-0.1,0-0.1,0c0,0,0,0,0,0
	c0,0,0,0.1,0.1,0.2l0.6,1.2c0.1-0.3,0.4-1.1,0.5-1.2l0-0.1c0,0,0,0,0-0.1c0,0-0.1,0-0.1,0c0,0,0,0,0,0c0,0,0,0,0.1,0
	c0.1,0,0.2,0,0.2,0c0,0,0.1,0,0.2,0c0,0,0,0,0,0c0,0,0,0,0,0c0,0-0.1,0-0.1,0c0,0-0.1,0.1-0.1,0.2L27.8,29c0,0.3-0.1,0.4-0.3,0.4
	c0,0-0.1,0-0.2,0c0,0,0,0,0-0.1c0-0.1,0-0.2,0-0.3c0,0,0,0,0,0c0,0,0,0,0,0c0,0.1,0.1,0.2,0.2,0.2C27.6,29.3,27.7,29.2,27.8,29
	L27.8,29z M25.2,28.5c0,0.2,0,0.4,0,0.5c0,0.1,0,0.1-0.1,0.1c0,0-0.1,0-0.1,0c0,0,0,0,0,0c0,0,0,0,0,0c0.1,0,0.2,0,0.2,0
	c0,0,0.2,0,0.3,0c0,0,0,0,0,0c0,0,0,0,0,0c0,0-0.1,0-0.1,0c-0.1,0-0.1-0.1-0.1-0.1c0-0.1,0-0.3,0-0.5v-0.2h0
	c0.1,0.1,0.6,0.7,0.8,0.8c0.1,0.1,0.2,0.1,0.3,0.2c0.1,0,0.1,0,0.2,0h0.1c0,0,0.1,0,0.1,0c0,0,0,0,0,0c0,0-0.1,0-0.2,0
	c-0.1,0-0.2-0.1-0.4-0.3c-0.1-0.1-0.6-0.6-0.7-0.7c0.1-0.1,0.5-0.5,0.5-0.5c0.1-0.1,0.2-0.2,0.3-0.2c0,0,0.1,0,0.1,0c0,0,0,0,0,0
	c0,0,0,0,0,0c-0.1,0-0.2,0-0.2,0c-0.1,0-0.1,0-0.2,0c0,0,0,0,0,0c0,0,0,0,0,0c0,0,0,0,0,0.1c0,0-0.1,0.1-0.1,0.2
	c-0.1,0.1-0.5,0.6-0.6,0.6h0v-0.1c0-0.4,0-0.5,0-0.5c0-0.1,0-0.1,0.1-0.1c0,0,0,0,0.1,0c0,0,0,0,0,0c0,0,0,0,0,0c-0.1,0-0.2,0-0.2,0
	c0,0-0.2,0-0.3,0c0,0,0,0,0,0c0,0,0,0,0,0c0,0,0.1,0,0.1,0c0.1,0,0.1,0.1,0.1,0.1c0,0.1,0,0.1,0,0.5V28.5L25.2,28.5z M23.5,28.3
	c0-0.6-0.4-0.9-0.8-0.9c-0.4,0-0.7,0.3-0.7,0.8c0,0.6,0.3,0.9,0.8,0.9C23.1,29.2,23.5,29,23.5,28.3L23.5,28.3z M23.8,28.2
	c0,0.6-0.4,1-1,1c-0.7,0-1-0.5-1-1c0-0.4,0.3-1,1-1C23.4,27.3,23.8,27.7,23.8,28.2L23.8,28.2z M21.4,28.8c0-0.1,0-0.4-0.2-0.5
	c-0.1-0.1-0.2-0.1-0.3-0.1c-0.1,0-0.1,0-0.1,0v0.6c0,0.2,0,0.2,0.1,0.3c0.1,0,0.2,0,0.2,0C21.1,29.2,21.4,29.1,21.4,28.8L21.4,28.8z
	 M20.7,28.1C20.7,28.1,20.7,28.1,20.7,28.1c0,0,0.1,0,0.2,0c0.1,0,0.2,0,0.2-0.1c0.1-0.1,0.1-0.1,0.1-0.2c0-0.2-0.1-0.4-0.3-0.4
	c0,0-0.1,0-0.1,0c0,0,0,0,0,0V28.1L20.7,28.1z M21.6,28.7c0,0.3-0.2,0.5-0.6,0.5c-0.1,0-0.3,0-0.3,0c0,0-0.2,0-0.2,0c0,0,0,0,0,0
	c0,0,0,0,0,0c0,0,0.1,0,0.1,0c0,0,0.1,0,0.1-0.1c0-0.1,0-0.3,0-0.6v-0.4c0-0.4,0-0.5,0-0.6c0-0.1,0-0.1-0.1-0.1c0,0-0.1,0-0.1,0
	c0,0,0,0,0,0c0,0,0,0,0,0c0.1,0,0.3,0,0.3,0c0.1,0,0.2,0,0.3,0c0.4,0,0.5,0.2,0.5,0.4c0,0.2-0.1,0.3-0.2,0.4
	C21.3,28.2,21.6,28.4,21.6,28.7L21.6,28.7z M19.3,27.5l0.3,0c0.2,0,0.3,0.1,0.3,0.1l0,0c0,0,0,0,0,0c0,0,0,0,0,0c0,0,0-0.2,0-0.3
	c0,0,0,0,0,0c0,0-0.1,0-0.2,0h-0.9c0,0-0.1,0-0.2,0c-0.1,0-0.1,0-0.1,0c0,0,0,0,0,0c0,0-0.1,0.2-0.1,0.3c0,0,0,0,0,0c0,0,0,0,0,0
	c0,0,0,0,0-0.1c0-0.1,0.1-0.1,0.3-0.1l0.4,0v1c0,0.2,0,0.4,0,0.5c0,0.1,0,0.1-0.1,0.1c0,0-0.1,0-0.1,0c0,0,0,0,0,0c0,0,0,0,0,0
	c0.1,0,0.2,0,0.2,0c0,0,0.2,0,0.3,0c0,0,0,0,0,0c0,0,0,0,0,0c0,0-0.1,0-0.1,0c-0.1,0-0.1-0.1-0.1-0.1c0-0.1,0-0.3,0-0.5V27.5
	L19.3,27.5z M16.5,28.3c0,0.6,0.4,1,1.1,1c0.2,0,0.3,0,0.4-0.1c0,0,0,0,0.1-0.1c0-0.1,0.1-0.3,0.1-0.3c0,0,0,0,0,0c0,0,0,0,0,0
	c0,0,0,0.2-0.1,0.2c-0.1,0.1-0.2,0.1-0.4,0.1c-0.5,0-0.9-0.4-0.9-0.9c0-0.4,0.2-0.8,0.8-0.8c0.3,0,0.6,0.1,0.6,0.4c0,0,0,0.1,0,0.1
	c0,0,0,0,0-0.2c0-0.1,0-0.3,0-0.3c0,0,0,0,0,0c-0.1,0-0.3-0.1-0.6-0.1C16.8,27.3,16.5,27.9,16.5,28.3L16.5,28.3z M15.2,28.5
	c0,0.2,0,0.4,0,0.5c0,0.1,0,0.1-0.1,0.1c0,0-0.1,0-0.1,0c0,0,0,0,0,0c0,0,0,0,0,0c0.1,0,0.2,0,0.2,0c0,0,0.2,0,0.3,0c0,0,0,0,0,0
	c0,0,0,0,0,0c0,0-0.1,0-0.1,0c-0.1,0-0.1-0.1-0.1-0.1c0-0.1,0-0.3,0-0.5v-1c0,0,0,0,0,0c0,0,0.1,0,0.1,0c0.1,0,0.2,0,0.3,0.1
	c0.1,0.1,0.1,0.3,0.1,0.4c0,0.2-0.2,0.4-0.4,0.4c-0.1,0-0.1,0-0.1,0c0,0,0,0,0,0c0,0,0,0,0.1,0c0.4,0,0.6-0.2,0.6-0.6
	c0-0.1-0.1-0.2-0.1-0.3c0,0-0.2-0.1-0.5-0.1c-0.1,0-0.3,0-0.3,0c0,0-0.2,0-0.3,0c0,0,0,0,0,0c0,0,0,0,0,0c0,0,0.1,0,0.1,0
	c0.1,0,0.1,0.1,0.1,0.1c0,0.1,0,0.1,0,0.5V28.5L15.2,28.5z M13.9,27.5C13.9,27.5,13.9,27.5,13.9,27.5c0.1,0,0.3,0,0.3,0
	c0.1,0,0.2,0,0.2,0.1c0,0,0,0.1,0,0.1c0,0,0,0,0,0c0,0,0,0,0,0c0,0,0-0.1,0-0.2c0-0.1,0-0.1,0-0.1c0,0,0,0,0,0s0,0,0,0
	c0,0-0.1,0-0.1,0c0,0-0.3,0-0.6,0c0,0-0.2,0-0.3,0c0,0,0,0,0,0c0,0,0,0,0,0c0,0,0.1,0,0.1,0c0.1,0,0.1,0.1,0.1,0.1c0,0,0,0.1,0,0.6
	v0.4c0,0.3,0,0.5,0,0.6c0,0.1,0,0.1-0.1,0.1c0,0-0.1,0-0.1,0c0,0,0,0,0,0c0,0,0,0,0,0c0.1,0,0.2,0,0.2,0c0.1,0,0.2,0,0.6,0
	c0.1,0,0.1,0,0.1-0.1c0-0.1,0-0.2,0-0.2c0,0,0,0,0,0c0,0,0,0,0,0c0,0.1,0,0.2-0.1,0.2c-0.1,0-0.2,0-0.2,0c-0.2,0-0.3,0-0.3-0.2v-0.6
	c0,0,0,0,0,0c0,0,0.3,0,0.4,0c0.1,0,0.1,0.1,0.1,0.1c0,0,0,0.1,0,0.1c0,0,0,0,0,0c0,0,0,0,0,0c0-0.1,0-0.3,0-0.3c0,0,0,0,0,0
	c0,0,0,0,0,0c0,0-0.1,0-0.1,0c-0.1,0-0.4,0-0.4,0c0,0,0,0,0,0V27.5L13.9,27.5z M12.5,27.5l0.3,0c0.2,0,0.3,0.1,0.3,0.1l0,0
	c0,0,0,0,0,0c0,0,0,0,0,0c0,0,0-0.2,0-0.3c0,0,0,0,0,0c0,0-0.1,0-0.2,0H12c0,0-0.1,0-0.2,0c-0.1,0-0.1,0-0.1,0c0,0,0,0,0,0
	c0,0-0.1,0.2-0.1,0.3c0,0,0,0,0,0c0,0,0,0,0,0c0,0,0,0,0-0.1c0-0.1,0.1-0.1,0.3-0.1l0.4,0v1c0,0.2,0,0.4,0,0.5c0,0.1,0,0.1-0.1,0.1
	c0,0-0.1,0-0.1,0c0,0,0,0,0,0c0,0,0,0,0,0c0.1,0,0.2,0,0.2,0c0,0,0.2,0,0.3,0c0,0,0,0,0,0c0,0,0,0,0,0c0,0-0.1,0-0.1,0
	c-0.1,0-0.1-0.1-0.1-0.1c0-0.1,0-0.3,0-0.5V27.5L12.5,27.5z M9.7,28.3c0,0.6,0.4,1,1.1,1c0.2,0,0.3,0,0.4-0.1c0,0,0,0,0.1-0.1
	c0-0.1,0.1-0.3,0.1-0.3c0,0,0,0,0,0c0,0,0,0,0,0c0,0,0,0.2-0.1,0.2c-0.1,0.1-0.2,0.1-0.4,0.1c-0.5,0-0.9-0.4-0.9-0.9
	c0-0.4,0.2-0.8,0.8-0.8c0.3,0,0.6,0.1,0.6,0.4c0,0,0,0.1,0,0.1c0,0,0,0,0-0.2c0-0.1,0-0.3,0-0.3c0,0,0,0,0,0c-0.1,0-0.3-0.1-0.6-0.1
	C9.9,27.3,9.7,27.9,9.7,28.3L9.7,28.3z M7.7,29.2C7.6,29.3,7.7,29.3,7.7,29.2L7.7,29.2l0.3-0.3c0.3-0.4,0.6-0.8,1-1.2c0,0,0,0,0,0
	v0.7c0,0.2,0,0.4,0,0.5c0,0.1,0,0.1-0.1,0.1c0,0-0.1,0-0.1,0c0,0,0,0,0,0c0,0,0,0,0,0c0.1,0,0.2,0,0.2,0c0,0,0.2,0,0.3,0
	c0,0,0,0,0,0c0,0,0,0,0,0c0,0-0.1,0-0.1,0c-0.1,0-0.1-0.1-0.1-0.1c0-0.1,0-0.3,0-0.5v-1.1c0-0.1,0-0.1-0.1,0
	c-0.5,0.7-0.9,1.1-1.2,1.5c0,0,0,0,0,0c0-0.8,0-1.2,0-1.3c0-0.1,0-0.1,0.1-0.1c0,0,0,0,0.1,0c0,0,0,0,0,0c0,0,0,0,0,0
	c-0.1,0-0.2,0-0.2,0c0,0-0.2,0-0.3,0c0,0,0,0,0,0c0,0,0,0,0,0c0,0,0.1,0,0.1,0c0.1,0,0.1,0.1,0.1,0.1c0,0.1,0,0.1,0,0.5V29.2
	L7.7,29.2z M6.8,28.1c0-0.4,0-0.5,0-0.5c0-0.1,0-0.1,0.1-0.1c0,0,0,0,0.1,0c0,0,0,0,0,0c0,0,0,0,0,0c-0.1,0-0.2,0-0.2,0
	c0,0-0.2,0-0.3,0c0,0,0,0,0,0c0,0,0,0,0,0c0,0,0.1,0,0.1,0c0.1,0,0.1,0.1,0.1,0.1c0,0.1,0,0.2,0,0.6v0.1c0,0,0,0,0,0h-1c0,0,0,0,0,0
	v-0.1c0-0.4,0-0.5,0-0.6c0-0.1,0-0.1,0.1-0.1c0,0,0,0,0.1,0c0,0,0,0,0,0c0,0,0,0,0,0c-0.1,0-0.2,0-0.2,0c0,0-0.2,0-0.3,0
	c0,0,0,0,0,0c0,0,0,0,0,0c0,0,0.1,0,0.1,0c0.1,0,0.1,0.1,0.1,0.1c0,0.1,0,0.1,0,0.5v0.4c0,0.2,0,0.4,0,0.5c0,0.1,0,0.1-0.1,0.1
	c0,0-0.1,0-0.1,0c0,0,0,0,0,0c0,0,0,0,0,0c0.1,0,0.2,0,0.2,0c0,0,0.2,0,0.3,0c0,0,0,0,0,0c0,0,0,0,0,0c0,0-0.1,0-0.1,0
	c-0.1,0-0.1-0.1-0.1-0.1c0-0.1,0-0.3,0-0.5v-0.2c0,0,0,0,0,0h1c0,0,0,0,0,0v0.2c0,0.2,0,0.4,0,0.5c0,0.1,0,0.1-0.1,0.1
	c0,0-0.1,0-0.1,0c0,0,0,0,0,0c0,0,0,0,0,0c0.1,0,0.2,0,0.2,0c0,0,0.2,0,0.3,0c0,0,0,0,0,0c0,0,0,0,0,0c0,0-0.1,0-0.1,0
	c-0.1,0-0.1-0.1-0.1-0.1c0-0.1,0-0.3,0-0.5V28.1L6.8,28.1z M2.9,29.2C2.9,29.3,2.9,29.3,2.9,29.2L2.9,29.2l0.3-0.3
	c0.3-0.4,0.6-0.8,1-1.2c0,0,0,0,0,0v0.7c0,0.2,0,0.4,0,0.5c0,0.1,0,0.1-0.1,0.1c0,0-0.1,0-0.1,0c0,0,0,0,0,0c0,0,0,0,0,0
	c0.1,0,0.2,0,0.2,0c0,0,0.2,0,0.3,0c0,0,0,0,0,0c0,0,0,0,0,0c0,0-0.1,0-0.1,0c-0.1,0-0.1-0.1-0.1-0.1c0-0.1,0-0.3,0-0.5v-1.1
	c0-0.1,0-0.1-0.1,0c-0.5,0.7-0.9,1.1-1.2,1.5c0,0,0,0,0,0c0-0.8,0-1.2,0-1.3c0-0.1,0-0.1,0.1-0.1c0,0,0,0,0.1,0c0,0,0,0,0,0
	c0,0,0,0,0,0c-0.1,0-0.2,0-0.2,0c0,0-0.2,0-0.3,0c0,0,0,0,0,0c0,0,0,0,0,0c0,0,0.1,0,0.1,0c0.1,0,0.1,0.1,0.1,0.1c0,0.1,0,0.1,0,0.5
	V29.2L2.9,29.2z M2.2,28.9c0,0.1,0,0.2,0.1,0.3c0.1,0,0.1,0,0.2,0c0,0,0,0,0,0c0,0,0,0-0.1,0H2.2c-0.1,0-0.1,0-0.2,0
	c-0.1,0-0.1,0-0.1,0c0,0,0,0,0,0c0,0,0-0.1,0-0.1l-0.1-1.3h0l-0.6,1.3c-0.1,0.1-0.1,0.1-0.1,0.1c0,0,0,0-0.1-0.1
	C1,29,0.8,28.6,0.8,28.5c0,0-0.3-0.6-0.3-0.7h0L0.3,29c0,0,0,0.1,0,0.1c0,0,0,0.1,0.1,0.1c0,0,0.1,0,0.1,0c0,0,0,0,0,0c0,0,0,0,0,0
	c-0.1,0-0.2,0-0.2,0c0,0-0.1,0-0.2,0c0,0,0,0,0,0v0c0,0,0,0,0,0c0,0,0,0,0.1,0c0.1,0,0.1-0.1,0.1-0.2l0.2-1.6c0,0,0,0,0,0
	c0,0,0,0,0,0l0.8,1.6l0.7-1.6c0,0,0,0,0,0c0,0,0,0,0,0.1L2.2,28.9z"/>
<path class="st0" d="M24.2,4.3c0,0-0.1-0.1-0.1-0.1l-0.1,0.2c0,0,0.1,0.1,0.1,0.2C24.1,4.5,24.1,4.4,24.2,4.3L24.2,4.3z M15.6,4.3
	l-0.1-0.2c0,0.1-0.1,0.1-0.1,0.1c0,0.1,0.1,0.1,0.1,0.2C15.5,4.4,15.5,4.4,15.6,4.3L15.6,4.3z M11.9,5.2c0.1,0,0.3-0.1,0.3-0.2
	c0-0.1-0.2-0.2-0.3-0.5C11.7,4.2,11.8,4,12,3.9c0.2-0.1,0.4-0.1,0.5-0.2c0.1,0,0.2-0.2,0.4-0.3C13,3.2,13.1,3.1,13.3,3
	c0.2-0.1,0.3,0,0.5,0.1c0.2,0.1,0.2,0.1,0.4,0.1c0.2,0,0.4,0.2,0.4,0.2S14.3,3.3,14,3.5c-0.2,0.1-0.1,0-0.4,0.2
	c-0.3,0.1-0.7,0.1-0.9,0.2c-0.2,0-0.4,0.1-0.6,0.2c-0.2,0.1-0.1,0.4,0,0.5c0.1,0.1,0.1,0,0.1-0.2C12.1,3.9,12.6,4,12.6,4
	s-0.1,0.1,0,0.3C12.8,4.6,13,4.8,13.1,5c0.1,0.2,0.1,0.4-0.1,0.5c-0.1,0.1-0.4,0.2-0.4,0.4c0,0.2,0.2,0.3,0.2,0.3s-0.2,0-0.3-0.1
	c-0.3-0.1-0.1-0.3-0.1-0.4c0.1-0.1,0.1-0.1,0.2-0.2c0.1-0.1,0-0.2,0-0.2s-0.1,0.1-0.2,0.1c-0.1,0-0.3,0-0.4,0
	c-0.3-0.1-0.4,0.1-0.4,0.1S11.5,5.3,11.9,5.2L11.9,5.2z M14.4,4.1c0.1-0.2-0.1-0.4-0.3-0.4c-0.1,0-0.2,0-0.2,0s0,0.1,0,0.2
	c0,0.1,0,0.3-0.1,0.5c-0.1,0.4,0,0.6,0.3,0.8c0.1,0.1,0.3,0.2,0.3,0.2s-0.1-0.1-0.1-0.2c-0.1-0.2-0.1-0.3-0.1-0.5
	C14.3,4.4,14.3,4.3,14.4,4.1L14.4,4.1z M15.3,4.9c0,0,0-0.1,0.1-0.3c0,0-0.1-0.1-0.1-0.2c0,0.1-0.1,0.2-0.1,0.2s0,0,0-0.1
	c0-0.1,0-0.1,0-0.1c0,0,0,0,0.1-0.2c0,0-0.1-0.1-0.1-0.1c0,0,0,0,0-0.1c0,0,0.1-0.1,0.1-0.1s0,0,0.1,0.1C15.4,4,15.4,4,15.4,4l0.1,0
	l0.1,0c0,0,0,0-0.1,0.1l0.1,0.1c0,0,0,0,0,0c0-0.1,0-0.2,0-0.2l0,0l0.2-0.1c0,0,0,0.2,0,0.4c0,0.2,0,0.4,0,0.4l-0.1,0.1
	c0,0,0-0.1-0.1-0.3c0,0-0.1,0.1-0.2,0.2c0.1,0.1,0.2,0.1,0.2,0.1l-0.1,0.1c0,0-0.1,0-0.1-0.1c-0.1,0.2-0.1,0.4-0.1,0.4
	S15.3,5,15.3,4.9C15.3,4.9,15.3,4.9,15.3,4.9L15.3,4.9z M16,3.5c0.1,0,0.1,0.1,0.1,0.1c0,0.1-0.1,0.1-0.1,0.1
	c-0.1,0-0.1-0.1-0.1-0.1C15.9,3.5,15.9,3.5,16,3.5L16,3.5z M16.3,4L16.3,4c0,0,0,0.1,0,0.2c0,0,0,0,0,0l0.2-0.1
	C16.4,4,16.4,4,16.3,4l0.2,0l0.1,0c0,0,0,0,0.2,0.2c0,0,0.1-0.1,0.1-0.1s0,0,0.1,0.1c0,0,0,0.1,0,0.1c0,0,0,0.1-0.1,0.1
	c0.1,0.1,0.1,0.2,0.1,0.2c0,0,0,0,0,0.1c0,0.1,0,0.1,0,0.1s0-0.1-0.1-0.2c0,0-0.1,0.1-0.1,0.2c0.1,0.2,0.1,0.3,0.1,0.3
	c0,0,0,0,0,0.1c0,0.1-0.1,0.1-0.1,0.1s0-0.2-0.1-0.4c-0.1,0.1-0.1,0.1-0.1,0.1l-0.1-0.1c0,0,0.1,0,0.2-0.1c-0.1-0.1-0.1-0.2-0.1-0.2
	c0,0.2-0.1,0.3-0.1,0.3l-0.1-0.1c0,0,0-0.1,0-0.3c0-0.2,0-0.4,0-0.4L16.3,4L16.3,4z M16.1,5.1c0,0,0.1,0,0.2,0
	c0.1,0,0.2-0.2,0.2-0.2s-0.1,0-0.2,0C16.2,5,16.1,5.1,16.1,5.1L16.1,5.1z M15.9,4.9C15.9,5,16,5.1,16,5.1s0.1-0.1,0.1-0.2
	c0-0.1-0.1-0.2-0.1-0.2S15.9,4.8,15.9,4.9L15.9,4.9z M15.9,5.2c0,0-0.1-0.2-0.2-0.2c-0.1,0-0.2,0-0.2,0s0,0.1,0.1,0.1
	C15.7,5.1,15.9,5.2,15.9,5.2L15.9,5.2z M16.6,5.4L16.6,5.4c0,0.1-0.2,0-0.6,0c-0.4,0-0.6,0.1-0.6,0.1s0,0,0-0.1c0,0,0,0,0,0
	s0.3-0.1,0.6-0.1C16.3,5.2,16.6,5.3,16.6,5.4C16.6,5.3,16.6,5.4,16.6,5.4L16.6,5.4z M18.4,4.8c0.3-0.2,0.4-0.4,0.4-0.4l0.4,0
	c0,0-0.2,0.3-0.6,0.6c-0.4,0.3-1,0.4-1,0.4S18.1,5.1,18.4,4.8L18.4,4.8z M18.5,3.3C18.5,3.3,18.4,3.2,18.5,3.3L18.4,3c0,0,0,0,0,0
	l-0.1-0.2c0,0,0,0,0.1,0.1c0-0.1,0.1-0.2,0.2-0.3c-0.1-0.1-0.1-0.1-0.2-0.2c-0.1,0.2-0.2,0.3-0.2,0.3l-0.1-0.2c0,0,0-0.1,0.1-0.2
	c0-0.1-0.1-0.1-0.1-0.1l0.1-0.2c0,0,0,0,0.1,0.1c0,0,0,0,0.1-0.1c0-0.1,0.1-0.1,0.1-0.1c-0.1-0.1-0.1-0.1-0.1-0.1l0.1-0.1
	c0,0,0,0,0,0c0.1-0.1,0.1-0.1,0.1-0.1l0.2,0l0.1,0c0,0-0.1,0.1-0.3,0.3c0,0.1,0.1,0.1,0.2,0.2c0,0,0,0,0,0c0.1-0.1,0.1-0.2,0.1-0.2
	l0,0.2c0,0,0,0,0,0.1c0,0,0.1,0.1,0.1,0.1l0,0.2c0,0-0.1-0.1-0.2-0.2c-0.1,0.1-0.1,0.1-0.2,0.2c0,0,0,0,0,0c0.1,0.1,0.2,0.2,0.2,0.2
	c0.1-0.2,0.2-0.2,0.2-0.2l0,0.2c0,0-0.1,0.1-0.3,0.4c-0.1,0.2-0.3,0.6-0.3,0.6l-0.1-0.2c0,0,0,0,0-0.1C18.6,3.4,18.5,3.3,18.5,3.3
	L18.5,3.3z M19.2,1.7L19.2,1.7c0,0,0,0.3,0.1,0.6C19.3,2.7,19.4,3,19.4,3l0.1-0.1c0,0,0-0.2-0.1-0.6c0-0.3-0.1-0.7-0.1-0.7L19.2,1.7
	L19.2,1.7z M19.7,1c0.1,0,0.3,0.1,0.3,0.3c0,0.1-0.1,0.3-0.3,0.3c-0.1,0-0.3-0.1-0.3-0.3C19.4,1.1,19.5,1,19.7,1L19.7,1z M20,1.6
	l0.2,0.1l0,0c0,0,0,0.3-0.1,0.6C20.1,2.7,20,3,20,3l-0.1-0.1c0,0,0-0.2,0.1-0.6C20,2,20,1.6,20,1.6L20,1.6z M20.3,2.4l0,0.2
	c0,0,0.1-0.1,0.2-0.2c0.1,0.1,0.1,0.1,0.2,0.2c0,0,0,0,0,0c-0.1,0.1-0.2,0.2-0.2,0.2c-0.1-0.2-0.2-0.2-0.2-0.2l0,0.2
	c0,0,0.1,0.1,0.3,0.4c0.1,0.2,0.3,0.6,0.3,0.6l0.1-0.2c0,0,0,0,0-0.1c0,0,0.1-0.1,0.1-0.1c0,0,0.1-0.1,0.1-0.1L21,3c0,0,0,0,0,0
	l0.1-0.2c0,0,0,0-0.1,0.1c0-0.1-0.1-0.2-0.2-0.3C20.9,2.6,21,2.5,21,2.5c0.1,0.2,0.2,0.3,0.2,0.3l0.1-0.2c0,0,0-0.1-0.1-0.2
	c0-0.1,0.1-0.1,0.1-0.1l-0.1-0.2c0,0,0,0-0.1,0.1c0,0,0,0-0.1-0.1c0-0.1-0.1-0.1-0.1-0.1c0.1-0.1,0.1-0.1,0.1-0.1l-0.1-0.1
	c0,0,0,0,0,0c-0.1-0.1-0.1-0.1-0.1-0.1l-0.2,0l-0.1,0c0,0,0.1,0.1,0.3,0.3c0,0.1-0.1,0.1-0.2,0.2c0,0,0,0,0,0
	c-0.1-0.1-0.1-0.2-0.1-0.2l0,0.2C20.3,2.3,20.3,2.3,20.3,2.4C20.3,2.4,20.3,2.4,20.3,2.4L20.3,2.4z M20.9,4.8
	c0.4,0.3,0.8,0.5,0.8,0.5s-0.6-0.1-1-0.4c-0.4-0.3-0.6-0.6-0.6-0.6l0.4,0C20.6,4.4,20.7,4.6,20.9,4.8L20.9,4.8z M19.8,3.7
	c0,0,0.1-0.2,0.3-0.3c0.1-0.1,0.4-0.1,0.4-0.1s-0.1,0.2-0.2,0.3C20.1,3.7,19.8,3.7,19.8,3.7L19.8,3.7z M18.9,3.4
	c0,0,0.1,0.2,0.2,0.3c0.1,0.1,0.4,0,0.4,0s-0.1-0.2-0.3-0.3C19.1,3.3,18.9,3.4,18.9,3.4L18.9,3.4z M19.7,2c-0.1,0-0.2-0.1-0.2-0.2
	c0-0.1,0.1-0.2,0.2-0.2c0.1,0,0.2,0.1,0.2,0.2C19.9,1.9,19.8,2,19.7,2L19.7,2z M19.7,2.8c0,0,0.1,0.2,0.1,0.4c0,0.2-0.1,0.4-0.1,0.4
	s-0.1-0.2-0.1-0.4C19.6,3,19.7,2.8,19.7,2.8L19.7,2.8z M19.8,2.6C19.8,2.7,19.7,2.7,19.8,2.6c-0.1,0.1-0.2,0.1-0.2,0
	C19.6,2.6,19.6,2.5,19.8,2.6C19.7,2.5,19.8,2.6,19.8,2.6L19.8,2.6z M19.7,2.4c-0.1,0-0.1-0.1-0.1-0.1c0-0.1,0.1-0.1,0.1-0.1
	c0.1,0,0.1,0.1,0.1,0.1C19.8,2.3,19.8,2.4,19.7,2.4L19.7,2.4z M19.7,4.1c-0.6,0-1,0.1-1,0.1s0-0.1,0-0.1c0,0,0-0.1,0-0.1
	s0.5-0.2,1-0.2c0.5,0,1,0.2,1,0.2s0,0.1,0,0.1v0.1C20.7,4.2,20.3,4.1,19.7,4.1L19.7,4.1z M19.7,4.6c-0.2,0-0.4-0.1-0.4-0.1l0.2-0.2
	c0,0,0.1,0.1,0.2,0.1c0.1,0,0.2-0.1,0.2-0.1L20,4.6C20,4.6,19.9,4.6,19.7,4.6L19.7,4.6z M22.8,4.5c0,0.1-0.1,0.2-0.1,0.2s0,0,0-0.1
	c0-0.1,0-0.1,0-0.1c0,0,0,0,0.1-0.2c0,0-0.1-0.1-0.1-0.1c0,0,0,0,0-0.1c0,0,0.1-0.1,0.1-0.1s0,0,0.1,0.1c0.1-0.2,0.2-0.2,0.2-0.2
	L23,4l0.1,0c0,0,0,0-0.1,0.1l0.1,0.1c0,0,0,0,0,0c0-0.1,0-0.2,0-0.2l0,0l0.2-0.1c0,0,0,0.2,0,0.4c0,0.2,0,0.3,0,0.3l-0.1,0.1
	c0,0,0-0.1-0.1-0.3c0,0-0.1,0.1-0.1,0.2c0.1,0.1,0.2,0.2,0.2,0.2l-0.1,0.1c0,0-0.1,0-0.1-0.1c-0.1,0.2-0.1,0.4-0.1,0.4
	c0,0,0-0.1-0.1-0.1c0-0.1,0-0.1,0-0.1c0,0,0-0.1,0.1-0.3C22.9,4.6,22.8,4.5,22.8,4.5L22.8,4.5z M23.5,3.5c0.1,0,0.1,0.1,0.1,0.1
	c0,0.1-0.1,0.1-0.1,0.1c-0.1,0-0.1-0.1-0.1-0.1C23.4,3.6,23.5,3.5,23.5,3.5L23.5,3.5z M23.8,4L23.8,4c0,0,0,0.1,0,0.2c0,0,0,0,0,0
	L24,4.1C23.9,4,23.9,4,23.8,4L24,4l0.1,0c0,0,0,0,0.2,0.2c0,0,0.1-0.1,0.1-0.1s0,0,0.1,0.1c0,0,0,0.1,0,0.1c0,0,0,0.1-0.1,0.1
	c0.1,0.1,0.1,0.2,0.1,0.2c0,0,0,0,0,0.1c0,0.1,0,0.1,0,0.1s0-0.1-0.1-0.2c0,0-0.1,0.1-0.1,0.2c0.1,0.2,0.1,0.3,0.1,0.3
	c0,0,0,0,0,0.1c0,0.1-0.1,0.1-0.1,0.1c0,0,0-0.2-0.1-0.4c-0.1,0.1-0.1,0.1-0.1,0.1l-0.1-0.1c0,0,0.1-0.1,0.2-0.2
	c-0.1-0.1-0.1-0.2-0.2-0.2c0,0.2-0.1,0.3-0.1,0.3l-0.1-0.1c0,0,0-0.1,0.1-0.4c0-0.2,0-0.4,0-0.4L23.8,4L23.8,4z M23.8,5
	c-0.1,0-0.2,0.2-0.2,0.2s0.2,0,0.3,0C23.9,5.1,24,5,24,5S23.9,5,23.8,5L23.8,5z M23.5,5.1c0,0,0.1-0.1,0.1-0.2
	c0-0.1-0.1-0.2-0.1-0.2s-0.1,0.1-0.1,0.2C23.4,5,23.5,5.1,23.5,5.1L23.5,5.1z M23.1,5c0,0,0.1,0.1,0.1,0.2c0.1,0,0.2,0,0.2,0
	S23.4,5,23.3,5C23.2,4.9,23.1,5,23.1,5L23.1,5z M24.1,5.4C24.1,5.5,24.1,5.5,24.1,5.4c0,0.1-0.2,0-0.6,0c-0.4,0-0.6,0.1-0.6,0.1V5.4
	c0,0,0-0.1,0-0.1s0.3-0.1,0.6-0.1C23.8,5.2,24.1,5.4,24.1,5.4C24.1,5.4,24.1,5.4,24.1,5.4L24.1,5.4z M25.1,4.1
	c-0.1-0.2,0.1-0.4,0.3-0.4c0.1,0,0.2,0,0.2,0s0,0.1,0,0.2c0,0.1,0,0.3,0.1,0.5c0.1,0.4,0,0.6-0.3,0.8c-0.1,0.1-0.3,0.2-0.3,0.2
	s0.1-0.1,0.1-0.2c0.1-0.2,0.1-0.3,0.1-0.5C25.2,4.5,25.2,4.4,25.1,4.1L25.1,4.1z M25.4,3.3c-0.2,0-0.4,0.2-0.4,0.2s0.2-0.2,0.5-0.1
	c0.2,0.1,0.1,0,0.4,0.2c0.3,0.1,0.7,0.1,0.9,0.2c0.2,0,0.4,0.1,0.6,0.2c0.2,0.1,0.1,0.4,0,0.5c-0.1,0.1-0.1,0-0.1-0.2
	c0.1-0.4-0.4-0.3-0.4-0.3s0.1,0.1,0,0.3c-0.1,0.3-0.4,0.5-0.5,0.7c-0.1,0.2-0.1,0.4,0.1,0.5c0.1,0.1,0.4,0.2,0.4,0.4
	c0.1,0.2-0.2,0.3-0.2,0.3s0.2,0,0.3-0.1c0.3-0.1,0.1-0.3,0.1-0.4c-0.1-0.1-0.1-0.1-0.2-0.2c-0.1-0.1,0-0.2,0-0.2s0.1,0.1,0.2,0.1
	c0.1,0,0.3,0,0.4,0C27.8,5.4,28,5.5,28,5.5s0-0.2-0.4-0.3c-0.1,0-0.3-0.1-0.3-0.2c0-0.1,0.2-0.2,0.3-0.5c0.2-0.3,0.1-0.5-0.1-0.6
	c-0.2-0.1-0.4-0.1-0.5-0.2c-0.1,0-0.2-0.2-0.4-0.3c-0.1-0.2-0.2-0.3-0.4-0.4c-0.2-0.1-0.3,0-0.5,0.1C25.6,3.3,25.6,3.3,25.4,3.3
	L25.4,3.3z M11.6,5.6c-0.2,0.1-0.2,0.2-0.2,0.2s-0.1-0.2-0.1-0.4c0-0.2,0.3-0.3,0.5-0.3c0.3,0,0.1-0.2,0-0.3
	c-0.1-0.1-0.4-0.3-0.3-0.6c0.1-0.3,0.4-0.4,0.8-0.5C12.8,3.5,12.8,3.1,13,3c0.4-0.3,0.7-0.1,0.8,0c0.1,0.1,0.3,0.1,0.4,0.1
	c0.1,0,0.3,0.1,0.4,0.4c0.2,0.4-0.1,0.8-0.2,1.1c-0.1,0.4,0,0.7,0.5,0.8c0.2,0,0.3,0,0.4,0c0,0,0-0.1,0-0.1c0-0.1-0.1-0.2-0.2-0.4
	c-0.1-0.2-0.2-0.3-0.2-0.5c0-0.2,0.1-0.4,0.2-0.4c0.1,0,0.2-0.1,0.4-0.1c0.1,0,0.2-0.1,0.2-0.1c0,0,0-0.1,0-0.1c0-0.1,0-0.1,0-0.1h0
	l0,0l0.2-0.3l-0.3,0.1l0-0.3L15.9,3l-0.1-0.3l0.3,0L16.1,3L16.3,3l0,0.3l-0.2-0.1l0.1,0.3l0,0h0c0,0,0,0,0,0c0,0,0,0.1,0,0.1
	c0,0,0,0.1,0,0.1c0,0,0.1,0.1,0.2,0.1c0.2,0.1,0.3,0.1,0.4,0.1c0.1,0,0.2,0.2,0.2,0.4c0,0.2-0.1,0.3-0.2,0.5
	c-0.1,0.2-0.1,0.3-0.2,0.4c0,0,0,0,0,0.1c0,0,0.1,0,0.1,0c0.1,0,0.4-0.1,0.6-0.2c0.5-0.2,0.8-0.4,0.9-0.7c0.1-0.1,0.1-0.2,0.1-0.3
	c0-0.1,0-0.2,0-0.2c0-0.1,0-0.2-0.2-0.5C18.2,3.2,18,2.9,18,2.5c0-0.4,0.1-0.6,0.3-0.7c0.2-0.1,0.3-0.1,0.6-0.2
	c0.2-0.1,0.4-0.1,0.4-0.2c-0.1-0.1-0.1-0.2-0.1-0.2c0-0.1,0-0.2,0.1-0.2h0l0,0l0.3-0.4l-0.4,0.1V0.3l0.4,0.1L19.5,0h0.5l-0.1,0.4
	l0.3-0.1l0,0.4l-0.4,0L20.1,1l0,0h0c0,0,0,0,0,0c0,0.1,0.1,0.1,0.1,0.2c0,0.1,0,0.1-0.1,0.2c0,0,0.2,0.1,0.4,0.2
	c0.3,0.1,0.5,0.1,0.6,0.2c0.2,0.1,0.3,0.3,0.3,0.7c0,0.3-0.1,0.5-0.3,0.7c-0.1,0.2-0.2,0.3-0.2,0.5c0,0-0.1,0.2-0.1,0.3
	c0,0.1,0,0.2,0.1,0.5c0.1,0.2,0.5,0.6,1,0.8l0,0c0.2,0.1,0.5,0.1,0.6,0.1c0,0,0.1,0,0.1,0c0,0,0-0.1,0-0.1c0-0.1-0.1-0.2-0.2-0.4
	c-0.1-0.2-0.2-0.3-0.2-0.5c0-0.2,0.1-0.4,0.2-0.4c0.1,0,0.2-0.1,0.4-0.1c0.1,0,0.2-0.1,0.2-0.1c0,0,0-0.1,0-0.1c0,0,0-0.1,0-0.1
	c0,0,0,0,0,0h0l0,0l0.1-0.3l-0.2,0.1l0-0.3l0.3,0.1l-0.1-0.3l0.3,0L23.6,3L23.8,3l0,0.3l-0.3-0.1l0.2,0.3l0,0h0c0,0,0,0.1,0,0.1
	c0,0,0,0.1,0,0.1c0,0,0.1,0.1,0.2,0.1C24.1,3.9,24.2,4,24.3,4c0.1,0,0.2,0.2,0.2,0.4c0,0-0.1,0.3-0.2,0.5c-0.1,0.2-0.1,0.3-0.2,0.4
	c0,0,0,0.1,0,0.1c0,0,0.2,0,0.4,0C25,5.3,25.2,5,25,4.7c-0.1-0.4-0.4-0.8-0.2-1.1c0.1-0.2,0.3-0.3,0.4-0.4c0.1,0,0.3,0,0.4-0.1
	c0.1-0.1,0.4-0.3,0.8,0c0.2,0.2,0.2,0.5,0.6,0.6c0.4,0.1,0.7,0.2,0.8,0.5c0.1,0.3-0.2,0.5-0.3,0.6c-0.1,0.1-0.3,0.3,0,0.3
	c0.3,0,0.5,0.1,0.5,0.3c0,0.2-0.1,0.4-0.1,0.4s0-0.1-0.2-0.2c-0.2-0.1-0.3,0-0.4,0c-0.2,0-0.4,0-0.4,0s0.2,0.1,0.3,0.3
	c0.1,0.2,0,0.5-0.3,0.5c-0.3,0-0.3,0-0.5,0c-0.1,0-0.3,0-0.3,0s0.1-0.1,0.2-0.2c0.1-0.1,0.2-0.1,0.2-0.3c0-0.1-0.3-0.3-0.4-0.4
	C26,5.4,26,5.1,26.2,5c0.1-0.2,0.3-0.4,0.4-0.6c0.2-0.2,0-0.4,0-0.4s-0.3,0-0.5-0.1c-0.2,0-0.3-0.1-0.3-0.1s0,0.2,0,0.4
	c0,0.2,0.2,0.5-0.1,0.9c-0.2,0.3-0.7,0.4-0.9,0.5c-0.2,0-0.4,0.1-0.6,0.1l0,0c-0.2,0-0.4,0-0.9,0c-0.6,0-1,0-1.3-0.1l0,0
	c-0.4,0-0.7-0.1-1-0.2c-0.4-0.1-0.8-0.6-0.8-0.6s-0.3,0.1-0.5,0.1c-0.3,0-0.5-0.1-0.5-0.1s-0.4,0.4-1,0.6c-0.1,0-0.4,0.1-0.7,0.1
	c-0.3,0-0.8,0.1-1.3,0.1c-0.6,0-0.8,0-0.9,0l0,0c-0.2,0-0.4,0-0.6-0.1c-0.2,0-0.7-0.2-0.9-0.5c-0.2-0.3-0.1-0.7-0.1-0.9
	c0-0.2,0-0.4,0-0.4s-0.1,0.1-0.3,0.1c-0.2,0-0.5,0.1-0.5,0.1s-0.2,0.2,0,0.5c0.1,0.2,0.3,0.4,0.4,0.6c0.1,0.2,0.2,0.4,0,0.6
	c-0.2,0.2-0.4,0.3-0.4,0.4c0,0.1,0.1,0.2,0.2,0.3c0.1,0.1,0.2,0.2,0.2,0.2s-0.2,0-0.3,0c-0.1,0-0.2,0-0.5,0c-0.3,0-0.3-0.3-0.3-0.5
	c0.1-0.2,0.3-0.3,0.3-0.3s-0.2,0.1-0.4,0C11.9,5.5,11.8,5.5,11.6,5.6L11.6,5.6z M23.1,4.4L23,4.2c-0.1,0.1-0.1,0.1-0.1,0.1
	c0,0.1,0.1,0.1,0.1,0.2C23,4.5,23.1,4.4,23.1,4.4L23.1,4.4z M18.9,3c0,0-0.1-0.1-0.2-0.2c-0.1,0.1-0.1,0.2-0.2,0.3
	c0,0,0.1,0.1,0.1,0.1c0,0,0.1,0.1,0.1,0.1C18.7,3.2,18.8,3.1,18.9,3L18.9,3z M16.7,4.3c0,0-0.1-0.1-0.1-0.1l-0.1,0.2
	c0,0,0.1,0.1,0.1,0.2C16.5,4.4,16.6,4.4,16.7,4.3L16.7,4.3z M18.7,2.5c0-0.1,0.1-0.1,0.2-0.2c0,0-0.1-0.1-0.1-0.1
	c0,0-0.1-0.1-0.1-0.1c0,0-0.1,0.1-0.1,0.1c0,0-0.1,0.1-0.1,0.1C18.5,2.4,18.6,2.5,18.7,2.5C18.6,2.5,18.6,2.5,18.7,2.5L18.7,2.5z
	 M20.8,2.5C20.7,2.5,20.7,2.5,20.8,2.5c-0.1-0.1-0.1-0.2-0.2-0.2c0,0,0.1-0.1,0.1-0.1c0,0,0.1-0.1,0.1-0.1c0,0,0.1,0.1,0.1,0.1
	c0,0,0.1,0.1,0.1,0.1C20.9,2.4,20.8,2.5,20.8,2.5L20.8,2.5z M20.5,3c0,0,0.1-0.1,0.2-0.2c0.1,0.1,0.1,0.2,0.2,0.3
	c0,0-0.1,0.1-0.1,0.1c0,0-0.1,0.1-0.1,0.1C20.7,3.2,20.6,3.1,20.5,3L20.5,3z M24.9,7.5C25,7.5,25,7.6,25,7.6s0,0,0-0.2
	c0-0.2-0.2-0.3-0.2-0.3s0,0.1,0,0.1c0,0.1,0,0.1,0,0.1s-0.1,0-0.2,0c-0.1,0-0.2,0-0.2,0l0,0.1C24.5,7.4,24.7,7.4,24.9,7.5L24.9,7.5z
	 M14.7,7.3C14.7,7.3,14.6,7.3,14.7,7.3c0-0.1,0-0.2,0-0.2s-0.2,0.1-0.2,0.3c0,0.2,0,0.2,0,0.2s0-0.1,0.2-0.1c0.2,0,0.3,0,0.3,0
	l0-0.1c0,0-0.1,0-0.2,0C14.7,7.3,14.7,7.3,14.7,7.3L14.7,7.3z M25.5,12.1l0.5,0l0.1-0.1L26,11.9l-0.5,0.1L25.5,12.1L25.5,12.1z
	 M29.9,11.9c-0.8,0.1-1.3,0.1-1.5,0c0,0,0.1-0.1,0.1-0.1c0,0-0.1-0.1-0.2-0.2c-0.2-0.2-0.4-0.2-0.4-0.2c0.3,0,0.6,0,1.1,0
	c0.3,0,0.5,0,0.9-0.1c0.2,0,0.5,0,0.8,0c0.2,0,0.3,0.1,0.4,0.1C30.9,11.6,30.5,11.8,29.9,11.9L29.9,11.9z M30.4,12.5
	c0.3,0.1,0.4,0.2,0.5,0.3c-0.2,0.1-0.4,0.3-1.4,0.2c-0.5,0-0.9-0.1-1.2-0.2c0,0,0.2-0.1,0.2-0.2c0,0,0-0.1-0.2-0.3
	c-0.1-0.1-0.3-0.2-0.4-0.2c0.1,0,0.2-0.1,0.2-0.1c0.1,0,0.3,0.1,0.6,0.1c0.3,0.1,0.6,0.1,1.1,0.1C29.9,12.4,30.2,12.5,30.4,12.5
	L30.4,12.5z M30.2,13.8c-0.1-0.1-0.3-0.3-0.4-0.3c-0.7,0-1.2-0.2-1.5-0.3c-0.3-0.1-0.4-0.2-0.5-0.2c-0.3,0.1-0.4,0.1-0.5,0.1
	c0.2,0.1,0.5,0.5,1.6,0.9c0.9,0.4,1.3,0.3,1.7,0.2C30.5,14.2,30.4,14,30.2,13.8L30.2,13.8z M29.8,15.4c0,0-0.3,0-1-0.3
	c-0.6-0.3-1.4-1-1.5-1.1c0.1,0,0.5,0,0.6-0.1c0.1,0,0.1,0,0.1,0.1c0.3,0.2,0.9,0.6,1.4,0.7C29.7,15.1,29.8,15.4,29.8,15.4L29.8,15.4
	z M28.8,16.2c0,0-0.4,0-0.8-0.4c-0.5-0.4-0.9-1-1.1-1.1c0.1,0,0.1,0,0.1,0s0-0.2,0-0.4c0-0.2-0.1-0.3-0.1-0.3c0,0,0.1,0,0.1,0
	c0.1,0.1,0.3,0.3,0.3,0.4c0.2,0.3,0.8,0.9,1.3,1.2c0,0,0.1,0.1,0.1,0.4C28.8,16.1,28.8,16.2,28.8,16.2L28.8,16.2z M27.7,16.8
	c0,0,0-0.2,0-0.3c0-0.1-0.1-0.4-0.1-0.4c-0.5-0.4-0.8-1-0.9-1.3c-0.1,0-0.3,0-0.5-0.1c0,0.1,0,0.2,0,0.3c0,0.1-0.1,0.3-0.1,0.3
	c0.1,0.3,0.3,0.7,0.8,1.1C27.3,16.8,27.7,16.8,27.7,16.8L27.7,16.8z M26.3,17.1c0,0-0.4-0.1-0.7-0.6c-0.2-0.3-0.4-0.6-0.5-1.1
	c0,0,0.1-0.1,0.1-0.2c0.1-0.1,0.1-0.2,0.1-0.3c0.2,0.2,0.4,0.3,0.6,0.3c0.1,0.4,0.3,0.8,0.6,1.2C26.4,17,26.3,17.1,26.3,17.1
	L26.3,17.1z M24.9,17.1c0,0,0.1-0.3,0.2-0.7c-0.1-0.3-0.2-0.5-0.2-0.8c-0.1-0.1-0.3-0.2-0.4-0.3c0,0-0.1,0.2-0.1,0.3
	c0,0.5,0.1,0.8,0.2,1.1C24.7,17.1,24.9,17.1,24.9,17.1L24.9,17.1z M24.1,15.3C24,15.5,24,15.5,24,15.5s-0.3-0.2-0.4-0.5
	c-0.1-0.3-0.2-0.6-0.1-0.7l0.3-0.2c0,0,0.1,0.1,0.2,0.2c0.1,0.1,0.2,0.1,0.2,0.1c0,0.1,0,0.3,0.1,0.5c0,0.1,0.1,0.2,0.1,0.2
	C24.3,15.1,24.2,15.2,24.1,15.3L24.1,15.3z M23.6,19c0.1,0,0-0.2,0-0.2s0.1,0.1,0.1,0c0,0-0.1-0.1-0.1-0.2c0-0.1-0.1-0.1,0-0.2
	c0,0,0.1,0.2,0.2,0.2c0.1,0.1,0.1,0.2,0,0.3c0,0.1-0.4,0-0.5,0.2c-0.1,0.1-0.2,0.2-0.4,0.1c-0.2-0.1-0.1-0.3-0.1-0.3l0.2,0
	c0,0,0.1,0.1,0.2,0.1c0.1,0,0.2-0.2,0.2-0.2C23.5,18.9,23.5,19,23.6,19L23.6,19z M23.6,19.4c0.1-0.1,0-0.2,0-0.2c0,0,0,0.1-0.1,0.1
	c0,0-0.1,0-0.1,0c0,0,0,0.1,0,0.1c0,0,0-0.1-0.1,0c0,0-0.2,0.1-0.3,0.1c-0.1,0-0.2-0.1-0.3,0c-0.1,0.1-0.1,0.2,0,0.3
	c0.2,0,0.3-0.1,0.4-0.1C23.4,19.5,23.5,19.6,23.6,19.4L23.6,19.4z M23,19.9c0,0-0.1,0.1-0.1,0c0-0.1,0-0.1,0.1-0.1
	c0.1-0.1,0.2-0.1,0.2,0.1C23.2,20,23.1,19.9,23,19.9L23,19.9z M22.5,20.1c-0.1,0-0.2,0-0.2-0.2c0-0.1,0.1-0.1,0.2-0.1
	c0.1,0,0.1-0.1,0.1,0.1C22.7,20.1,22.6,20.1,22.5,20.1L22.5,20.1z M22.2,19.7C22.2,19.8,22.2,19.8,22.2,19.7
	C22.4,19.7,22.4,19.7,22.2,19.7C22.3,19.6,22.2,19.6,22.2,19.7L22.2,19.7z M22.7,19.4c-0.1,0.1-0.1,0-0.1-0.1c0-0.1,0.1,0,0.1,0
	S22.7,19.3,22.7,19.4L22.7,19.4z M23,18.8C23,18.8,22.9,18.7,23,18.8C22.9,18.7,22.9,18.7,23,18.8C22.8,18.8,22.8,18.9,23,18.8
	C22.9,18.9,22.9,18.9,23,18.8L23,18.8z M22.1,19.7c0-0.2,0.1-0.3,0.1-0.3c0,0,0.1,0,0.2,0.1c0,0,0,0,0,0c0,0,0-0.1,0-0.1
	c-0.1-0.1-0.1-0.3,0.1-0.4c0.1,0,0.2,0,0.2,0s0,0,0,0c0-0.1,0-0.1,0-0.1c0-0.1,0-0.1,0.1-0.3c0-0.1,0.2-0.2,0.3-0.1
	c0.1,0.1,0,0.1,0.1,0.2c0,0,0,0,0,0c0-0.1,0.1-0.1,0.1-0.2c0,0,0-0.1,0.1-0.1c0.4-1,0.2-2.3,0-2.8c-0.1-0.5-0.6-1.5-0.8-2
	c0,0,0-0.1-0.1-0.1c-0.1-0.2-0.2-0.4-0.2-0.7l0,0c0-0.1,0-0.1,0-0.2l-0.7,0.2c0.1,0.4,0.2,0.7,0.2,1c0.2,0.5,0.4,1.3,0.5,1.8
	c0.1,0.4,0.2,1.4-0.2,1.9c-0.3,0.5-0.8,0.8-1.2,0.9v-5.8l-0.2,0.1v5.7c-0.1,0-0.2,0.1-0.4,0.1v-6l-0.2,0.1v5.9c-0.1,0-0.2,0-0.4,0
	v-6l-0.2,0.1v5.9c-0.1,0-0.2,0-0.4,0v-6l-0.2,0.1v5.8c-0.1,0-0.2-0.1-0.4-0.1v-5.9l-0.2,0.1v5.7c-0.4-0.1-0.8-0.4-1.2-0.9
	C16.9,17,17,16,17.1,15.6c0.1-0.4,0.4-1.2,0.5-1.8c0.1-0.3,0.2-0.8,0.3-1.2l-0.7,0.2c-0.1,0.4-0.2,0.6-0.3,0.8
	c-0.2,0.5-0.6,1.4-0.8,2c-0.1,0.5-0.4,1.8,0,2.8c0.1,0.1,0.1,0.2,0.2,0.3c0,0,0,0,0,0c0.1-0.1,0-0.2,0.1-0.2
	c0.1-0.1,0.2-0.1,0.3,0.1c0,0.1,0.1,0.2,0.1,0.3c0,0.1,0,0.1,0,0.1c0,0.1,0,0,0,0s0-0.1,0.2,0c0.1,0,0.1,0.2,0.1,0.4
	c0,0,0,0.1,0,0.1c0,0,0,0,0,0c0.1-0.1,0.1-0.1,0.2-0.1c0.1,0,0.2,0.1,0.1,0.3c0.2,0.1,0.3,0.1,0.4,0.2c0.3,0.1,0.4,0.5,0.4,0.9
	c0.1,0.5,0.2,0.4,0.3,0.4c0,0,0,0,0.1,0c0.3-0.2,0.5-0.5,0.7-0.7l-0.7-0.6l-1-0.8l0-0.1l-0.7-0.5l0.6-0.7l0.5,0.7l0.1,0l0.9,0.9
	l0.6,0.6c0.6-0.6,1.4-1.3,1.7-1.5c0.4-0.3,0.7-0.5,0.9-0.5c0.2-0.1,0.4-0.1,0.4,0.1c0,0.2-0.4,0.5-0.4,0.5s0.2,0.1,0,0.3
	C22.2,19,22,19.1,22,19.1s0.3,0,0,0.3c-0.1,0.1-0.4,0.2-0.4,0.2s0.2,0.2-0.1,0.3c-0.2,0.1-0.5,0.2-0.5,0.2s0.1,0.1-0.1,0.3
	c-0.2,0.1-0.5,0.2-0.5,0.2s0.1,0.1,0,0.2c0,0-0.1,0.1-0.2,0.1l0.3,0.3c0.2,0,0.2,0,0.3,0c0.2,0,0.3,0.1,0.3-0.4
	c0.1-0.5,0.1-0.8,0.4-0.9c0,0,0.1,0,0.1-0.1C21.9,19.8,22,19.8,22.1,19.7L22.1,19.7z M21.7,21.7c0.1,0.1,0.2,0.1,0.2,0.2
	c0.2,0.1,0.6,0.4,0.8,0.5c0.4,0.1,0.6,0,0.7-0.2c0.1-0.1,0.1-0.2,0.1-0.2s0.1,0,0.1,0.1c0.1,0.2-0.1,0.3-0.2,0.4
	c-0.2,0.1-0.4,0.1-0.6,0.1c-0.2,0,0,0.1,0.1,0.2c0.3,0.2,0.7,0.3,0.7,0.6c0,0.2,0,0.2,0,0.5c0,0.2-0.1,0.1-0.1,0.1s0-0.1-0.1-0.2
	c-0.1-0.2-0.3-0.2-0.4-0.4c-0.1-0.2-0.3-0.5-0.4-0.4c-0.1,0,0.5,0.8,0.1,1.3c-0.4,0.6-0.8,0.1-1,0.2c-0.1,0-0.3,0.1-0.3,0.1
	s0.1-0.3,0.1-0.4c0.1-0.1,0.2-0.1,0.4-0.1c0.2,0,0.5-0.1,0.5-0.5c0-0.2-0.1-0.4-0.2-0.5l0.1-0.1L21,21.4c0,0,0,0,0.1,0
	C21.1,21.4,21.4,21.5,21.7,21.7L21.7,21.7z M21.3,24.2c0.1-0.2,0.1-0.5-0.1-0.9c-0.1-0.2-0.2-0.4-0.5-1c-0.2-0.4-0.4-0.7-0.4-0.8
	l0,0c0,0,0,0-0.1,0c0.1,0.2,0.4,1,0.6,1.5c0.3,0.6,0.3,0.9,0.2,1.3c-0.1,0.4-0.5,0.6-0.5,0.6C20.6,24.8,21.1,24.7,21.3,24.2
	L21.3,24.2z M19.9,21.4C19.9,21.4,20,21.4,19.9,21.4C20,21.4,20,21.4,19.9,21.4c0.1,0,0.6,1.3,0.7,1.6c0.1,0.3,0.2,0.6,0.2,0.8
	c0,0.6-0.5,0.8-0.5,0.8s0.2-0.3,0.2-0.8C20.5,23.3,20,21.7,19.9,21.4L19.9,21.4z M19.7,25c0.1-0.2,0.3-0.4,0.3-0.9
	c0-0.7-0.3-0.9-0.3-0.9c0,0.2,0,0.9,0,1.1L19.7,25L19.7,25z M19.7,25.4L19.7,25.4c-0.1-0.1-0.2-0.2-0.2-0.3
	c-0.1-0.1-0.1-0.2-0.1-0.2l0.1,0c0,0,0.1,0.1,0.1,0.3c0,0,0.1,0.1,0.1,0.1L19.7,25.4L19.7,25.4z M19.3,24.6c-0.1,0-0.1-0.7-0.1-1
	c0-0.4,0.2-0.9,0.3-1.5c0-0.2,0.1-0.5,0.1-0.7c0,0,0,0,0.1,0c0,0.4,0,1,0,1.5c0,0-0.2,0.3-0.2,0.4c0,0.1-0.1,0.4-0.1,0.7
	c0,0.3,0.1,0.5,0.1,0.5S19.3,24.7,19.3,24.6L19.3,24.6z M19.1,22.9c0-0.2,0.3-1.1,0.4-1.5l-0.1,0c0,0-0.5,1.3-0.6,1.5
	c-0.1,0.3-0.2,0.6-0.2,0.8c0,0.5,0.4,0.7,0.4,0.7s-0.1-0.3,0-0.7C19,23.4,19.1,23.1,19.1,22.9L19.1,22.9z M18.3,24.8
	c0.5,0.1,0.9,0,0.9,0c0,0-0.8-0.3-0.8-1c0-0.3,0.1-0.6,0.4-1.1c0.2-0.3,0.3-0.6,0.4-0.8c0.1-0.2,0.1-0.4,0.2-0.5c0,0,0,0-0.1,0
	c-0.1,0.2-0.2,0.5-0.5,0.8c-0.3,0.4-0.6,0.7-0.6,0.7h0.1c0,0-0.1,0.1-0.2,0.2c-0.1,0.1-0.3,0.2-0.3,0.2c0,0.1-0.1,0.1-0.1,0.2
	c0,0.1,0,0.1,0,0.2c0.1,0,0.3,0,0.4,0.2c0.1,0.2,0.1,0.2,0.2,0.3c0,0.1,0,0.2,0,0.2s-0.1-0.1-0.2-0.1c-0.1,0-0.2,0-0.2,0
	S18,24.7,18.3,24.8L18.3,24.8z M17.9,22.9c0,0-0.2,0-0.2-0.2l1.3-1.3c0,0,0,0,0,0c0,0.1-0.1,0.1-0.1,0.2c-0.2,0.4-0.4,0.5-0.6,0.7
	C18.2,22.5,17.9,22.9,17.9,22.9L17.9,22.9z M17.4,23.2c-0.1,0-0.2-0.1-0.2-0.1l0.2-0.2c0,0,0.1,0.1,0.2,0.1c0.2,0.1,0.3,0,0.3,0
	S17.8,23.3,17.4,23.2L17.4,23.2z M17.5,23.7c0,0-0.1,0-0.2-0.1c-0.1-0.1-0.1-0.4-0.1-0.4s0.1,0.1,0.2,0.1c0.1,0,0.2,0,0.2,0
	s0,0.1-0.1,0.2C17.5,23.6,17.5,23.7,17.5,23.7L17.5,23.7z M19.8,21C19.8,21,19.8,21,19.8,21c-0.1,0.1-0.9,0.3-0.9,0.3l-1.6,1.5
	c0,0,0-0.2,0.3-0.5c0.4-0.5,1.3-1.2,1.8-1.8L19.8,21L19.8,21z M21.8,23.6c-0.1,0.1-0.2,0.1-0.2,0.1s0,0,0.2,0c0.2,0,0.3,0,0.4-0.2
	c0.1-0.1,0-0.3,0-0.3s-0.1,0-0.1,0c-0.1,0-0.2,0-0.2,0S22,23.5,21.8,23.6L21.8,23.6z M21.5,23c0,0,0.1,0,0.2-0.1l-1-1
	c0.1,0.2,0.3,0.4,0.4,0.6C21.4,22.8,21.5,23,21.5,23L21.5,23z M21.8,23c-0.1,0.1-0.2,0.1-0.2,0.1s0,0.1,0.4,0.1h0c0,0,0,0,0,0
	L21.8,23L21.8,23z M22.1,18.7c-0.1,0-0.4,0-0.4,0s0.4-0.1,0.7-0.3c0.2-0.2,0.2-0.3-0.4,0c-0.6,0.3-1.3,1-2.2,1.8l0.5,0.5
	c0.1,0,0.2-0.1,0.2-0.1c0.1-0.1-0.2-0.2-0.2-0.2s0.5-0.1,0.6-0.2c0.2-0.1-0.1-0.2-0.1-0.2s0.5-0.1,0.7-0.2c0.2-0.1,0.1-0.2,0-0.2
	c-0.1,0-0.4-0.1-0.4-0.1s0.7-0.1,0.8-0.2c0.1-0.1,0-0.1-0.1-0.1c-0.1,0-0.4,0-0.4,0s0.6-0.2,0.8-0.3C22.2,18.7,22.2,18.7,22.1,18.7
	L22.1,18.7z M19,19.6l3.2,3.3l-0.1,0.1l-3.3-3.1L19,19.6L19,19.6z M18.8,19.5L18.8,19.5l-0.1,0.3l-0.1,0L18.8,19.5L18.8,19.5z
	 M18.2,18.9l0.5,0.5l-0.2,0.2L18,19.1L18.2,18.9L18.2,18.9z M18,18.6L18,18.6l-0.3,0.4l0-0.1L18,18.6L18,18.6z M17.7,18.8L17.7,18.8
	l-0.6-0.3l0.1-0.1l0,0L17.7,18.8L17.7,18.8z M17.3,18.3l0.2-0.2l0.4,0.5l-0.1,0.1L17.3,18.3L17.3,18.3z M17.6,24.4
	c-0.2,0.2-0.5,0.2-0.7,0.1c-0.3-0.1-0.4-0.2-0.5-0.4c-0.1-0.2,0-0.6,0-0.7c0,0,0.1-0.5,0.1-0.6c0-0.1,0-0.1,0-0.1
	c-0.1,0,0,0.1-0.3,0.3c-0.2,0.1-0.4,0.4-0.3,0.7c0,0.3,0,0.4,0,0.4c0,0,0-0.1-0.1-0.2c0-0.1-0.1-0.1-0.1-0.4
	c-0.1-0.2,0.1-0.4,0.2-0.6c0.1-0.2,0.3-0.3,0.3-0.3s-0.1,0-0.2-0.1c-0.1-0.1-0.2-0.2-0.2-0.3c0-0.1,0.1-0.2,0.1-0.2s0,0.2,0.1,0.3
	c0.1,0.1,0.3,0.2,0.5,0.2c0.2,0,0.6-0.2,0.7-0.4c0.1-0.2,0.3-0.3,0.5-0.4c0.2-0.1,0.3-0.1,0.4-0.2c0.1,0,0.1,0,0.2,0
	c-0.3,0.2-0.9,0.6-1.3,1.3c-0.2,0.4-0.3,0.8-0.2,1c0.1,0.2,0.3,0.3,0.4,0.4c0.2,0,0.3,0,0.5,0c0.1,0,0.3,0,0.3,0.1
	c0.1,0.1,0.1,0.1,0.1,0.1S17.9,24.2,17.6,24.4L17.6,24.4z M17.1,19.8c-0.1-0.1-0.1-0.1,0-0.1C17.2,19.6,17.2,19.6,17.1,19.8
	C17.2,19.8,17.2,19.8,17.1,19.8L17.1,19.8z M16.9,20.1c-0.1,0-0.2,0-0.2-0.2c0-0.2,0-0.1,0.1-0.1c0.1,0,0.2,0,0.2,0.1
	C17.1,20.1,17.1,20.1,16.9,20.1L16.9,20.1z M16.8,19.3c0,0,0.1-0.1,0.1,0c0,0.1,0,0.2-0.1,0.1C16.7,19.3,16.8,19.3,16.8,19.3
	L16.8,19.3z M16.6,19.7c-0.2,0-0.3-0.1-0.4-0.1c-0.1,0-0.3,0-0.4-0.1c-0.1-0.1,0-0.2,0-0.2c0,0,0,0.1,0,0.1c0,0,0.1,0,0.1,0
	c0,0,0,0.1,0,0.1c0,0,0-0.1,0.1,0c0.1,0,0.2,0.1,0.3,0.1c0.1,0,0.2-0.1,0.3,0C16.8,19.6,16.8,19.7,16.6,19.7L16.6,19.7z M16.4,19.9
	c0,0-0.1,0-0.2-0.1c0-0.1,0-0.1,0.2-0.1c0.1,0.1,0.2,0.1,0.1,0.1C16.5,20,16.5,20,16.4,19.9L16.4,19.9z M16.5,18.8
	C16.5,18.8,16.5,18.7,16.5,18.8C16.5,18.7,16.6,18.7,16.5,18.8C16.6,18.8,16.6,18.9,16.5,18.8C16.6,18.9,16.5,18.9,16.5,18.8
	L16.5,18.8z M15.6,19c0-0.1,0-0.2,0-0.3c0.1-0.1,0.1-0.3,0.2-0.2c0,0,0,0.1,0,0.2c0,0.1-0.1,0.1-0.1,0.2c0,0,0.1,0,0.1,0
	s0,0.1,0,0.2c0.1,0,0.1-0.1,0.1-0.1c0,0,0.1,0.2,0.2,0.2c0.1,0,0.2-0.1,0.2-0.1l0.2,0c0,0,0.1,0.2-0.1,0.3c-0.2,0.1-0.3,0-0.4-0.1
	C16,19,15.6,19.1,15.6,19L15.6,19z M15.5,15.5c0,0-0.1-0.1-0.2-0.2c-0.1-0.1-0.1-0.2-0.1-0.3c0,0,0.1-0.1,0.1-0.2
	c0-0.2,0.1-0.3,0.1-0.5c0,0,0.1,0,0.2-0.1c0.2-0.1,0.2-0.2,0.2-0.2l0.3,0.2c0,0.1,0,0.4-0.1,0.7C15.7,15.3,15.5,15.5,15.5,15.5
	L15.5,15.5z M15,16.6c0.1-0.3,0.2-0.6,0.2-1.1c-0.1-0.1-0.1-0.3-0.1-0.3c-0.1,0.2-0.3,0.3-0.4,0.3c-0.1,0.3-0.1,0.5-0.2,0.8
	c0,0.5,0.2,0.7,0.2,0.7S14.8,17.1,15,16.6L15,16.6z M13.8,16.5c-0.3,0.5-0.7,0.6-0.7,0.6S13,17,13,16.5c0.3-0.4,0.5-0.8,0.6-1.2
	c0.2,0,0.4-0.1,0.6-0.3c0,0.1,0,0.2,0.1,0.3c0,0,0.1,0.1,0.1,0.2C14.2,15.9,14.1,16.2,13.8,16.5L13.8,16.5z M12.6,16.4
	c0.4-0.4,0.6-0.8,0.8-1.1c0-0.1-0.1-0.2-0.1-0.3c0-0.2,0-0.3,0-0.3c-0.2,0.1-0.3,0.1-0.5,0.1c-0.2,0.3-0.5,0.9-0.9,1.3
	c0,0-0.1,0.3-0.1,0.4c0,0.2,0,0.3,0,0.3S12.1,16.8,12.6,16.4L12.6,16.4z M11.5,15.8c-0.5,0.3-0.8,0.4-0.8,0.4s0-0.1,0-0.3
	c0-0.3,0.1-0.4,0.1-0.4c0.6-0.3,1.1-0.9,1.3-1.2c0-0.1,0.2-0.3,0.3-0.4c0,0,0.1,0,0.1,0c0,0.1-0.1,0.2-0.1,0.3c0,0.2,0,0.4,0,0.4
	s0,0,0.1,0C12.4,14.9,12,15.5,11.5,15.8L11.5,15.8z M9.7,15.4c0,0,0-0.3,0.4-0.7c0.5-0.1,1.1-0.5,1.4-0.7c0.1,0,0.1,0,0.1-0.1
	c0.1,0.1,0.5,0.1,0.6,0.1c-0.2,0.2-0.9,0.9-1.5,1.1C10,15.4,9.7,15.4,9.7,15.4L9.7,15.4z M8.9,14.2c0.4,0.1,0.7,0.2,1.7-0.2
	c1-0.4,1.4-0.8,1.6-0.9c-0.1,0-0.2,0-0.5-0.1c-0.1,0-0.2,0.1-0.5,0.2c-0.3,0.1-0.8,0.3-1.5,0.3c-0.1,0-0.3,0.2-0.4,0.3
	C9,14,8.9,14.2,8.9,14.2L8.9,14.2z M8.6,12.8c0,0,0.2-0.1,0.5-0.3c0.2-0.1,0.5-0.2,0.7-0.2c0.4,0,0.8,0,1.1-0.1
	c0.3-0.1,0.5-0.1,0.6-0.1c0,0,0.1,0.1,0.2,0.1c-0.1,0-0.3,0.1-0.4,0.2C11,12.6,11,12.7,11,12.7c0,0.1,0.2,0.2,0.2,0.2
	C10.9,13,10.6,13,10.1,13C9.1,13.1,8.8,12.9,8.6,12.8L8.6,12.8z M8.4,11.4c0.1,0,0.2-0.1,0.4-0.1c0.3-0.1,0.6,0,0.8,0
	c0.4,0.1,0.6,0.1,0.9,0.1c0.4,0,0.8,0,1.1,0c0,0-0.2,0-0.4,0.2c-0.1,0.1-0.2,0.2-0.2,0.2c0,0,0.1,0.1,0.1,0.1c-0.2,0-0.7,0.1-1.5,0
	C8.9,11.8,8.6,11.6,8.4,11.4L8.4,11.4z M8.4,10.1c0,0,0.2,0,0.5,0c0.3,0,0.9,0,0.9,0.1c0.2,0.1,0.3,0.1,0.5,0.2
	c0.2,0.1,0.6,0.2,0.7,0.2c-0.2,0.1-0.2,0.1-0.2,0.1s0.1,0.2,0.6,0.5c-0.2,0-0.8,0-1.8-0.3C8.9,10.6,8.6,10.4,8.4,10.1L8.4,10.1z
	 M8.5,8.5c0.1,0.3,0.5,0.7,1.3,1.1c0.8,0.4,1.2,0.6,1.4,0.7c0.2,0,0.4,0,0.4,0c-0.2-0.2-0.3-0.3-0.4-0.4c-0.3-0.1-1.2-0.5-1.9-1.2
	c0,0,0,0,0,0C9.3,8.6,9.1,8.5,9,8.5C8.7,8.5,8.6,8.5,8.5,8.5L8.5,8.5z M9.2,7.7C9,7.4,8.8,7,8.9,6.7c0,0,0.2,0.1,0.4,0.3
	c0.4,0.4,1.1,0.9,1.3,1.1C11.2,8.7,12,9.3,12,9.3s0,0,0.1,0.1c-0.5-0.2-0.9,0-0.9,0C11,9.3,11,9.3,10.1,8.7C9.8,8.5,9.4,8.1,9.2,7.7
	L9.2,7.7z M9.6,5.2c0,0.6,0.4,1.6,0.8,2c0.7,0.9,1.1,1.2,1.4,1.4c0,0-0.1-0.3,0-0.6c0,0-0.4-0.4-0.7-1c-0.3-0.5-0.8-1.4-1-2
	C9.9,4.6,9.6,4.8,9.6,5.2L9.6,5.2z M12.1,8c-0.1-0.2-0.2-0.2-0.2,0c0,0.4,0.2,0.8,0.4,1.1c0.2,0.3,0.4,0.4,0.6,0.5
	c0-0.1-0.1-0.3,0-0.6c-0.1-0.1-0.3-0.2-0.4-0.4C12.3,8.3,12.1,8.1,12.1,8L12.1,8z M13.3,10.3c-0.2-0.1-0.6-0.2-1-0.7
	c-0.1,0-0.2,0-0.4-0.1c-0.3,0-0.5,0-0.5,0c0.2,0.1,0.6,0.5,1,0.7c0.4,0.2,0.7,0.4,0.8,0.4c0.2-0.1,0.4-0.1,0.4-0.1
	S13.5,10.5,13.3,10.3L13.3,10.3z M14.5,14.3C14.5,14.3,14.5,14.3,14.5,14.3C14.5,14.3,14.5,14.3,14.5,14.3c0-0.1,0-0.2,0-0.2
	c0.2,0,0.2-0.1,0.2-0.1s0.1,0.2,0.2,0.3c0,0,0.1,0.1,0.2,0.1c0,0.1,0,0.4-0.1,0.6c-0.2,0.3-0.5,0.4-0.5,0.4s-0.1-0.1-0.2-0.2
	c-0.1-0.1-0.1-0.2-0.1-0.3C14.4,14.7,14.5,14.4,14.5,14.3L14.5,14.3z M13.4,14.5c0,0,0,0.2,0,0.3c0,0.2,0.1,0.3,0.1,0.3
	s0.3-0.1,0.5-0.3c0.3-0.3,0.3-0.6,0.4-0.7c-0.1,0-0.2,0.1-0.3,0.1c0,0-0.1-0.1-0.1-0.1C13.9,14.2,13.8,14.3,13.4,14.5L13.4,14.5z
	 M12.7,14.2c0-0.1,0.1-0.2,0.1-0.3c0.4-0.1,0.9-0.4,0.9-0.4s0,0.2,0.1,0.4c0,0,0,0,0,0.1c-0.1,0.1-0.2,0.2-0.5,0.4
	c-0.4,0.2-0.6,0.2-0.6,0.2S12.7,14.4,12.7,14.2L12.7,14.2z M12.4,13.2c0.3,0,0.4,0,0.6-0.1c0,0,0,0.1,0,0.1s0.1,0.1,0.3,0.2
	c-0.1,0-0.2,0.1-0.3,0.1c-0.5,0.2-0.9,0.2-1.2,0.2c0-0.1,0.1-0.2,0.2-0.3C12.1,13.3,12.3,13.2,12.4,13.2
	C12.4,13.2,12.4,13.2,12.4,13.2L12.4,13.2z M11.9,12.3C11.8,12.3,11.8,12.3,11.9,12.3c-0.1,0-0.2,0-0.3,0.1
	c-0.2,0.1-0.3,0.2-0.3,0.3c0.1,0.1,0.7,0.2,1.2,0.2c0.3,0,0.5,0,0.7-0.1c0,0,0.1-0.1,0.2-0.2c0,0-0.2-0.1-0.2-0.2
	C12.8,12.5,12.3,12.5,11.9,12.3L11.9,12.3z M11.1,10.6c0.2,0.2,0.6,0.4,1.1,0.5c0.6,0.2,0.9,0.2,1,0.2c-0.1-0.1-0.1-0.2-0.2-0.4
	c-0.2-0.1-0.7-0.3-1.1-0.5c-0.1,0-0.2,0-0.4,0C11.3,10.5,11.1,10.6,11.1,10.6L11.1,10.6z M12.1,11.4c-0.1,0-0.2,0-0.4,0.1
	c-0.3,0.1-0.4,0.2-0.4,0.3c0.2,0.1,0.5,0.3,1.1,0.3c0.2,0,0.5,0,0.6,0c0,0,0-0.1-0.1-0.2c0-0.1,0.1-0.2,0.3-0.3c0,0,0,0,0,0
	C13,11.6,12.5,11.5,12.1,11.4L12.1,11.4z M13.3,8.9c0,0,0.3,0.2,1.1,1.2c0.8,0.9,0.7,1,0.4,1.4c-0.3,0.4-0.3,0.8-0.2,1.1
	c0.2,0.3,0.7,0.7,1.4,0.5c0.2,0,0.7-0.2,1-0.3c0,0.2-0.1,0.4-0.3,0.9c0,0,0,0,0,0c-0.3,0.4-0.4,0.5-0.4,0.5l-0.4-0.3
	c0,0-0.1,0.1-0.2,0.2c-0.1,0.1-0.3,0.1-0.3,0.1s-0.1,0-0.2-0.1c-0.1-0.1-0.2-0.3-0.2-0.3s-0.2,0.1-0.3,0.2C14.4,14,14.1,14,14.1,14
	s-0.1-0.1-0.2-0.3c-0.1-0.2-0.1-0.4-0.1-0.4s0,0-0.1,0l0,0c0,0,0,0,0,0c-0.1,0-0.2,0-0.2,0c-0.2-0.1-0.3-0.2-0.3-0.2s0-0.1,0.1-0.2
	c0.1-0.2,0.3-0.3,0.3-0.3s-0.2-0.1-0.4-0.2C13.1,12.2,13,12,13,12s0.1-0.1,0.2-0.2c0.2-0.1,0.4-0.2,0.4-0.2s-0.2-0.2-0.3-0.3
	c-0.1-0.1-0.2-0.4-0.2-0.4s0.1-0.1,0.3-0.1c0.3,0,0.5,0,0.5,0s-0.1-0.1-0.3-0.3C13.5,10.3,13,9.8,13,9.5C13,9,13.3,8.9,13.3,8.9
	L13.3,8.9z M16,12c0.3,0.6,0.9,0.5,1.1,0.3c0.1-0.2,0.1-0.4-0.1-0.5c-0.2-0.1-0.4,0-0.4,0s-0.1,0-0.2,0c-0.1,0,0-0.2,0-0.2
	s0.4-0.4,0.7,0c0.1,0.1,0.1,0.2,0.1,0.4l0.7,0c0-0.1,0-0.1,0-0.2c-0.1-0.7-0.7-1.2-1.3-1.1C16.1,10.7,15.6,11.4,16,12L16,12z
	 M17.8,10.7c0.1-0.3,0.2-0.8-0.3-1.5c-0.5-0.7-0.9-0.8-0.9-0.8l-0.2,0c0,0-0.1-0.1-0.3-0.2c-0.1-0.1-0.4-0.4-0.6-0.6
	c-0.2-0.2-0.4-0.5-0.5-0.6C15.1,6.7,15,6.6,15,6.6s0,0,0.1,0c0,0,0.1,0,0.1,0s0.2,0.3,0.4,0.6c0.1,0.2,0.3,0.3,0.5,0.5h0
	c0,0,0.2,0.2,0.5,0.3l0.1,0c0.4,0.1,0.8,0.2,0.8,0.2l0.2,0L17,7.3c0,0,0,0,0,0c0.1,0,0.3,0.1,0.5,0.2C17.7,7.6,18,7.8,18,7.8L18.2,8
	l0-0.2c0,0,0-0.3-0.1-0.5c0,0,0-0.1,0-0.1c0.1,0.1,0.3,0.2,0.5,0.2C18.7,7.5,19,7.6,19,7.6s-0.1,0-0.2,0c-0.1,0-0.3,0.1-0.3,0.1
	s0.2,0.2,0.3,0.4c0,0,0,0.1,0.1,0.1C18.7,8.1,18.6,8,18.6,8l-0.2-0.1l0.1,0.2c0,0,0,0.2,0.1,0.4c0,0.1,0,0.2,0,0.2
	c0-0.1-0.1-0.1-0.1-0.2C18.2,8.2,17.9,8,17.9,8l-0.2-0.1l0.1,0.2c0,0,0,0.1,0.1,0.2c0,0.1,0.1,0.2,0.1,0.3c0,0.1,0,0.2,0,0.4
	c0,0,0,0,0,0.1c-0.1-0.1-0.2-0.2-0.3-0.3C17.4,8.4,17,8.2,17,8.2l-0.1,0.1c0,0,0.1,0.1,0.2,0.1c0.1,0.1,0.3,0.2,0.4,0.4
	C17.7,9,18,9.3,18,9.3l0.1,0.2l0-0.2c0,0,0-0.1,0-0.3c0-0.1,0-0.2,0-0.4c0-0.1-0.1-0.2-0.1-0.3c0.1,0.1,0.2,0.2,0.3,0.3
	C18.5,8.8,18.6,9,18.6,9l0.1,0.3l0-0.3c0,0,0-0.1,0-0.1c0-0.1,0-0.3,0-0.4c0,0,0-0.1,0-0.1c0.1,0.1,0.3,0.3,0.5,0.5
	c0.1,0.2,0.2,0.4,0.3,0.6c0,0.1,0.1,0.3,0.1,0.4c0-0.1-0.1-0.1-0.1-0.2c-0.2-0.3-0.4-0.5-0.4-0.5L19,9l0,0.2c0,0,0,0.2-0.1,0.5
	c0,0.1,0,0.2-0.1,0.2c0,0-0.1-0.1-0.1-0.1c-0.1-0.2-0.3-0.4-0.3-0.4l-0.1-0.2l0,0.2c0,0.3-0.1,0.6-0.2,0.9c-0.1,0.2-0.2,0.4-0.3,0.5
	c0,0.1-0.1,0.1-0.1,0.2c0,0-0.1-0.1-0.1-0.1C17.7,10.8,17.8,10.7,17.8,10.7L17.8,10.7z M15.6,8.3c0.2-0.2,0.4-0.1,0.4-0.1
	s-0.1-0.1-0.3,0c-0.2,0.1-0.3,0.2-0.3,0.3c0,0.1,0,0.2,0,0.2S15.3,8.5,15.6,8.3L15.6,8.3z M15.1,8.2c0.2-0.1,0.4-0.2,0.4-0.2
	S15.3,8,15.2,8c-0.2,0.1-0.6,0.2-0.8,0.3c-0.4,0.1-0.7-0.1-0.7-0.1s0.1,0.3,0.6,0.3C14.6,8.5,15,8.3,15.1,8.2L15.1,8.2z M14.8,7.5
	c-0.4,0-0.6,0.2-0.6,0.2s-0.1,0-0.2-0.3c-0.1-0.2,0-0.3,0.2-0.5c0.2-0.2,0.5-0.2,0.5-0.2s0.2,0.1,0.3,0.3c0.1,0.2,0.2,0.2,0.3,0.4
	c0.1,0.1,0.1,0.2,0.2,0.2c0,0,0,0.1,0,0C15.4,7.6,15,7.5,14.8,7.5L14.8,7.5z M16,6.9C16,6.9,15.9,6.9,16,6.9
	c-0.1-0.1-0.1-0.1-0.1-0.1l-0.1,0l0.1,0.1L16,6.9L16,6.9z M16.4,6.7c0,0,0,0-0.1,0c-0.1,0-0.1,0-0.2,0c0,0,0,0.1,0,0.1s0,0,0.1-0.1
	C16.5,6.7,16.4,6.7,16.4,6.7L16.4,6.7z M15.3,6.1c-0.1,0.1,0,0.3,0,0.4c0,0.1,0.2,0.5,0.4,0.7c0.2,0.2,0.3,0.3,0.4,0.4
	c0.1,0.1,0.4,0.2,0.5,0.3c0.2,0.1,0.4,0.1,0.6,0.2L16.7,7l0.2,0c0,0,0.4,0.1,0.8,0.3c0.1,0.1,0.3,0.2,0.4,0.2c0-0.1,0-0.2,0-0.2
	c0-0.1-0.1-0.2-0.1-0.2c0,0,0,0-0.1-0.1l-0.1,0c0,0,0.1,0,0.2-0.1c0.2,0,0.3-0.1,0.3-0.1s-0.2,0-0.4,0c-0.2,0-0.4,0-0.6,0
	c-0.2,0-0.4-0.1-0.8,0.1c-0.4,0.1-0.6,0.2-0.6,0.2S15.7,7,15.6,6.8c-0.1-0.1-0.1-0.2-0.1-0.2s0.1,0,0.2,0c0.1,0,0.4-0.1,0.8-0.1
	c0.4,0.1,0.8,0.1,1.2,0c0.4-0.1,0.5-0.2,0.5-0.2s-0.2,0.1-0.9-0.1C16.4,6.2,15.5,5.8,15.3,6.1L15.3,6.1z M19.7,10.4
	c-0.1,0-0.2,0.1-0.2,0.2c0,0.1,0.1,0.2,0.1,0.2V12h0.2v-1.1c0.1,0,0.2-0.1,0.2-0.2C20,10.5,19.9,10.4,19.7,10.4L19.7,10.4z M20,9.4
	c0.1-0.2,0.2-0.4,0.3-0.6c0.2-0.2,0.4-0.4,0.5-0.5c0,0,0,0.1,0,0.1c0,0.2,0,0.3,0,0.4c0,0.1,0,0.1,0,0.1l0,0.3L20.9,9
	c0,0,0.1-0.2,0.3-0.4c0.1-0.1,0.2-0.2,0.3-0.3c0,0.1-0.1,0.2-0.1,0.3c0,0.1,0,0.3,0,0.4c0,0.2,0,0.3,0,0.3l0,0.2l0.1-0.2
	c0,0,0.2-0.3,0.4-0.5c0.1-0.2,0.3-0.3,0.4-0.4c0.1-0.1,0.2-0.1,0.2-0.1l-0.1-0.1c0,0-0.4,0.2-0.7,0.6c-0.1,0.1-0.2,0.2-0.3,0.3
	c0,0,0,0,0-0.1c0-0.1,0-0.2,0-0.4c0-0.1,0.1-0.2,0.1-0.3c0-0.1,0.1-0.2,0.1-0.2l0.1-0.2L21.6,8c0,0-0.3,0.2-0.6,0.5
	c-0.1,0.1-0.1,0.1-0.1,0.2c0-0.1,0-0.2,0-0.2C21,8.2,21,8.1,21,8.1l0.1-0.2L20.9,8c0,0-0.1,0.1-0.3,0.2c0,0,0-0.1,0.1-0.1
	C20.8,7.9,21,7.7,21,7.7s-0.2-0.1-0.3-0.1c-0.1,0-0.2,0-0.2,0s0.2-0.1,0.4-0.1c0.2-0.1,0.4-0.2,0.5-0.2c0,0,0,0,0,0.1
	c0,0.1-0.1,0.5-0.1,0.5l0,0.2l0.2-0.1c0,0,0.3-0.3,0.5-0.4c0.2-0.1,0.4-0.2,0.5-0.2c0,0,0,0,0,0l-0.6,0.9l0.2,0c0,0,0.4,0,0.8-0.2
	l0.1,0c0.3-0.1,0.5-0.3,0.5-0.3c0.2-0.1,0.4-0.3,0.5-0.5c0.2-0.3,0.4-0.6,0.4-0.6s0.1,0,0.1,0c0,0,0.1,0,0.1,0s-0.1,0.1-0.2,0.2
	c-0.1,0.1-0.3,0.4-0.5,0.6c-0.2,0.2-0.4,0.5-0.6,0.6C23.1,8.2,23,8.3,23,8.3l-0.2,0c0,0-0.4,0.1-0.9,0.8c-0.5,0.7-0.4,1.3-0.3,1.5
	c0,0,0.1,0.1,0.1,0.2c0,0-0.1,0.1-0.1,0.1c0,0-0.1-0.1-0.1-0.2c-0.1-0.1-0.2-0.3-0.3-0.5c-0.1-0.3-0.1-0.5-0.2-0.9l0-0.2L21,9.4
	c0,0-0.1,0.2-0.3,0.4c0,0-0.1,0.1-0.1,0.1c0-0.1,0-0.1-0.1-0.2c0-0.3-0.1-0.5-0.1-0.5l0-0.2l-0.1,0.1c0,0-0.2,0.2-0.4,0.5
	c0,0.1-0.1,0.1-0.1,0.2C19.9,9.6,20,9.5,20,9.4L20,9.4z M23.5,6.9l0.1,0l0.1-0.1l-0.1,0C23.6,6.8,23.6,6.8,23.5,6.9
	C23.5,6.9,23.5,6.9,23.5,6.9L23.5,6.9z M23.1,6.7c-0.1,0-0.1,0-0.1,0S23,6.7,23.1,6.7c0.1,0.1,0.1,0.1,0.1,0.1s0-0.1,0-0.1
	C23.3,6.7,23.3,6.7,23.1,6.7L23.1,6.7z M21.3,6.8c0,0,0.1,0.1,0.3,0.1c0.1,0,0.2,0,0.2,0.1l-0.1,0c0,0-0.1,0-0.1,0.1
	c0,0-0.1,0.1-0.1,0.2c0,0,0,0.1,0,0.2c0.1-0.1,0.3-0.2,0.4-0.2c0.4-0.2,0.8-0.3,0.8-0.3l0.2,0L22.2,8c0.1,0,0.4-0.1,0.6-0.2
	c0.2-0.1,0.5-0.2,0.5-0.3c0.1-0.1,0.2-0.2,0.4-0.4c0.2-0.2,0.4-0.6,0.4-0.7c0-0.1,0.1-0.3,0-0.4c-0.2-0.3-1.1,0.1-1.9,0.2
	c-0.7,0.1-0.9,0.1-0.9,0.1s0.1,0.1,0.5,0.2c0.4,0.1,0.8,0,1.2,0c0.4-0.1,0.7,0.1,0.8,0.1c0.1,0,0.2,0,0.2,0s0,0.1-0.1,0.2
	c-0.1,0.1-0.2,0.2-0.2,0.2S23.4,7,23,6.9c-0.4-0.1-0.6-0.1-0.8-0.1c-0.2,0-0.4,0-0.6,0C21.5,6.9,21.3,6.8,21.3,6.8L21.3,6.8z
	 M24.6,6.8c0,0,0.3,0,0.5,0.2c0.2,0.2,0.3,0.3,0.2,0.5c-0.1,0.2-0.2,0.3-0.2,0.3S25,7.6,24.7,7.5c-0.2,0-0.6,0-0.8,0.2
	c0,0-0.1,0,0,0c0.1-0.1,0.1-0.1,0.2-0.2c0.1-0.2,0.2-0.3,0.3-0.4C24.5,6.9,24.6,6.8,24.6,6.8L24.6,6.8z M24.3,8c-0.1,0-0.3,0-0.3,0
	s0.2,0,0.4,0.2c0.1,0.1,0.5,0.3,0.8,0.3c0.5,0.1,0.6-0.3,0.6-0.3S25.4,8.5,25,8.3C24.9,8.3,24.5,8.1,24.3,8L24.3,8z M24.2,8.7
	c0,0,0-0.1,0-0.2c0-0.1-0.1-0.2-0.3-0.3c-0.2-0.1-0.3,0-0.3,0s0.1,0,0.4,0.1C24.2,8.5,24.2,8.7,24.2,8.7L24.2,8.7z M20.1,10.8
	c0,0.1,0.1,0.2,0.1,0.2v1h0.2v-1c0.1,0,0.2-0.1,0.2-0.2c0-0.1-0.1-0.2-0.2-0.2C20.2,10.5,20.1,10.7,20.1,10.8L20.1,10.8z M20.6,11.1
	c0,0.1,0.1,0.2,0.2,0.2V12h0.2v-0.6c0.1,0,0.2-0.1,0.2-0.2c0-0.1-0.1-0.2-0.2-0.2C20.7,10.9,20.6,11,20.6,11.1L20.6,11.1z
	 M20.7,10.7c0-0.1-0.1-0.3-0.3-0.3c-0.2-0.1-0.4,0-0.4,0s0-0.1-0.1-0.1c0,0,0-0.1,0.1-0.2c0-0.1,0.1-0.2,0.2-0.4
	c0.1-0.1,0.1-0.2,0.2-0.3c0,0.1,0,0.2,0,0.3c0,0.3,0.1,0.5,0.1,0.5l0.1,0.2l0.1-0.2c0,0,0.1-0.2,0.2-0.3c0-0.1,0.1-0.1,0.1-0.2
	c0,0.2,0.1,0.5,0.2,0.7c0.1,0.4,0.3,0.7,0.4,0.8c-0.2,0.3-0.2,0.5-0.3,0.7h-0.2v-0.3c0.1-0.1,0.2-0.2,0.2-0.4
	C21.3,10.9,21.1,10.7,20.7,10.7L20.7,10.7z M22.2,12.2l0,0.3l-4.9,0l0-0.3H22.2L22.2,12.2z M18.4,11.1c0,0.1,0.1,0.2,0.2,0.2V12h0.2
	v-0.6c0.1,0,0.2-0.1,0.2-0.2c0-0.1-0.1-0.2-0.2-0.2C18.5,10.9,18.4,11,18.4,11.1L18.4,11.1z M19.4,10.4c-0.1,0-0.2-0.1-0.3,0
	c-0.1,0-0.3,0.2-0.3,0.3c0,0-0.1,0-0.1,0c-0.1,0-0.2,0-0.3,0.1c-0.1,0.1-0.1,0.2-0.1,0.3c0,0.1,0.1,0.3,0.2,0.4v0.3h-0.2
	c0-0.1-0.1-0.4-0.3-0.6c0.1-0.1,0.3-0.4,0.4-0.8c0.1-0.2,0.1-0.5,0.1-0.7c0,0.1,0.1,0.1,0.1,0.2c0.1,0.1,0.2,0.3,0.2,0.3l0.1,0.2
	l0.1-0.2c0,0,0.1-0.2,0.1-0.5c0-0.1,0-0.2,0-0.3c0.1,0.1,0.1,0.2,0.2,0.3c0.1,0.1,0.2,0.3,0.2,0.4c0,0,0,0.1,0,0.2
	C19.5,10.3,19.4,10.3,19.4,10.4L19.4,10.4z M18.9,10.8c0,0.1,0.1,0.2,0.1,0.2v1h0.2v-1c0.1,0,0.2-0.1,0.2-0.2c0-0.1-0.1-0.2-0.2-0.2
	C19,10.6,18.9,10.7,18.9,10.8L18.9,10.8z M22.8,10.7c-0.6,0-1.1,0.5-1.3,1.1c0,0.1,0,0.1,0,0.2h0.7c0-0.2,0.1-0.2,0.2-0.3
	c0.4-0.3,0.6,0,0.6,0l0,0c0,0-0.3-0.1-0.5,0c-0.2,0.1-0.2,0.4-0.1,0.6c0.1,0.2,0.7,0.3,1.1-0.3C23.8,11.4,23.4,10.7,22.8,10.7
	L22.8,10.7z M23.4,13.1c0.7,0.1,1.2-0.2,1.4-0.5c0.2-0.3,0.1-0.6-0.2-1.1c-0.3-0.4-0.5-0.5,0.4-1.4c0.8-0.9,1.1-1.2,1.1-1.2
	s0.3,0.1,0.3,0.6c0,0.3-0.5,0.8-0.7,0.9c-0.2,0.2-0.3,0.3-0.3,0.3s0.2,0,0.5,0c0.2,0,0.3,0.1,0.3,0.1s-0.1,0.3-0.2,0.4
	c-0.1,0.1-0.3,0.3-0.3,0.3s0.2,0.1,0.4,0.2c0.1,0.1,0.2,0.2,0.2,0.2s-0.1,0.2-0.2,0.4c-0.1,0.1-0.4,0.2-0.4,0.2s0.2,0.1,0.3,0.3
	c0.1,0.1,0.1,0.2,0.1,0.2s-0.1,0.1-0.3,0.2c-0.1,0-0.2,0-0.2,0c0,0,0,0,0,0l0,0c-0.1,0-0.1,0-0.1,0s0,0.3-0.1,0.4
	c-0.1,0.2-0.2,0.3-0.2,0.3s-0.3,0-0.4-0.1c-0.2-0.1-0.3-0.2-0.3-0.2S24.5,14,24.4,14c-0.1,0.1-0.2,0.1-0.2,0.1S24,14.1,23.9,14
	c-0.1,0-0.2-0.2-0.2-0.2l-0.4,0.3c0,0-0.2-0.1-0.4-0.5c0,0,0,0,0,0c-0.2-0.4-0.3-0.7-0.3-0.9C22.7,13,23.2,13.1,23.4,13.1L23.4,13.1
	z M27.2,9.6c-0.4,0.5-0.8,0.6-1,0.7c-0.2,0.2-0.3,0.3-0.3,0.3s0.2,0,0.4,0.1c0.1-0.1,0.4-0.2,0.8-0.4c0.4-0.2,0.8-0.6,1-0.7
	c-0.1,0-0.3-0.1-0.5,0C27.4,9.5,27.3,9.5,27.2,9.6L27.2,9.6z M27,8.6c0.2-0.3,0.3-0.5,0.4-0.6c0.1-0.2,0.2-0.2,0.2,0
	c0,0.4-0.2,0.8-0.4,1.1c-0.2,0.3-0.4,0.4-0.6,0.5c0-0.1,0.1-0.3,0-0.6C26.6,9,26.8,8.8,27,8.6L27,8.6z M28.9,8
	c-0.7,0.7-1.5,1.3-1.5,1.3s0,0,0,0.1c0.5-0.2,0.9,0,0.9,0c0.1-0.1,0.2-0.1,1.1-0.7c0.3-0.2,0.7-0.6,0.9-1c0.2-0.3,0.3-0.7,0.3-1
	c0,0-0.2,0.1-0.4,0.3C29.8,7.3,29.1,7.8,28.9,8L28.9,8z M27.7,7.9c0,0,0.4-0.4,0.7-1c0.3-0.5,0.8-1.4,1-2c0.1-0.3,0.4-0.2,0.4,0.3
	c0,0.6-0.4,1.6-0.8,2c-0.8,0.9-1.1,1.2-1.4,1.4C27.7,8.5,27.8,8.2,27.7,7.9L27.7,7.9z M30.5,8.5c0.3,0,0.4,0,0.4,0
	c-0.1,0.3-0.5,0.7-1.3,1.1c-0.8,0.4-1.2,0.6-1.4,0.7c-0.2,0-0.4,0-0.4,0c0.2-0.2,0.3-0.3,0.4-0.4c0.3-0.1,1.2-0.5,1.9-1.2
	c0,0,0,0,0,0C30.1,8.6,30.4,8.5,30.5,8.5L30.5,8.5z M27.3,11.1c0.5-0.1,0.9-0.3,1.1-0.5c-0.1,0-0.2-0.1-0.5-0.2c-0.2,0-0.3,0-0.4,0
	c-0.4,0.3-0.9,0.5-1.1,0.5c-0.1,0.2-0.1,0.3-0.2,0.4C26.4,11.3,26.7,11.3,27.3,11.1L27.3,11.1z M27.1,12.1c0.5-0.1,0.9-0.3,1.1-0.3
	c0,0-0.1-0.1-0.4-0.3c-0.3-0.1-0.4-0.1-0.4-0.1c-0.4,0.1-0.9,0.2-1,0.2c0,0,0,0,0,0c0.2,0.1,0.3,0.2,0.3,0.3c0,0.1-0.1,0.2-0.1,0.2
	C26.7,12.2,26.9,12.2,27.1,12.1L27.1,12.1z M27,12.9c0.5,0,1.1-0.1,1.2-0.2c0-0.1-0.1-0.2-0.3-0.3c-0.1,0-0.2-0.1-0.2-0.1
	c0,0,0,0-0.1,0c-0.4,0.2-1,0.1-1.2,0.1c-0.1,0.1-0.2,0.2-0.2,0.2c0.1,0.1,0.1,0.1,0.2,0.2C26.5,12.8,26.6,12.9,27,12.9L27,12.9z
	 M26.4,13.6c-0.1,0-0.2-0.1-0.3-0.1c0.2-0.1,0.3-0.2,0.3-0.2s0-0.1,0-0.1c0.2,0,0.3,0.1,0.6,0.1c0,0,0.1,0,0.1,0
	c0,0,0.2,0.1,0.4,0.3c0.1,0.2,0.2,0.3,0.2,0.3C27.4,13.7,26.9,13.7,26.4,13.6L26.4,13.6z M25.6,14c0.1,0.1,0.2,0.2,0.5,0.4
	c0.4,0.2,0.6,0.2,0.6,0.2s0-0.1,0-0.3c0-0.1-0.1-0.2-0.1-0.3c-0.4-0.1-0.9-0.4-0.9-0.4S25.8,13.7,25.6,14
	C25.7,13.9,25.7,13.9,25.6,14L25.6,14z M25.1,14.2c0,0.1,0.1,0.4,0.4,0.7c0.2,0.2,0.5,0.3,0.5,0.3s0-0.1,0.1-0.3c0-0.1,0-0.3,0-0.3
	c-0.4-0.3-0.5-0.4-0.5-0.4c0,0-0.1,0.1-0.1,0.1C25.3,14.2,25.2,14.2,25.1,14.2L25.1,14.2z M24.9,14.3C24.9,14.3,24.9,14.3,24.9,14.3
	C24.9,14.3,24.9,14.3,24.9,14.3c0-0.1,0-0.2,0-0.2c-0.2,0-0.2-0.1-0.2-0.1s-0.1,0.2-0.2,0.3c0,0-0.1,0.1-0.2,0.1
	c0,0.1,0,0.4,0.1,0.6c0.2,0.3,0.5,0.4,0.5,0.4s0.1-0.1,0.2-0.2c0.1-0.1,0.1-0.2,0.1-0.3C25.1,14.7,25,14.4,24.9,14.3L24.9,14.3z
	 M30.6,10c0.3,0,0.4,0,0.5,0c-0.2,0.3-0.5,0.5-1.3,0.8c-1,0.3-1.5,0.3-1.8,0.3c0.5-0.3,0.6-0.5,0.6-0.5s0,0-0.2-0.1
	c0.2,0,0.5-0.1,0.7-0.2c0.2-0.1,0.3-0.1,0.5-0.2C29.7,10.1,30.3,10,30.6,10L30.6,10z M31.4,11.3c0,0-0.2,0.6-0.9,0.9
	c-0.1,0-0.2,0.1-0.3,0.1c0.1,0,0.3,0.1,0.5,0.2c0.2,0.1,0.4,0.3,0.4,0.3s-0.3,0.6-0.9,0.7c0,0-0.1,0-0.1,0c0.1,0.1,0.3,0.2,0.4,0.3
	c0.1,0.1,0.3,0.4,0.3,0.4s-0.5,0.5-1.2,0.4c0.1,0.1,0.1,0.1,0.2,0.2c0.1,0.2,0.2,0.6,0.2,0.6s-0.5,0.3-1.1,0.1
	c0,0.1,0.1,0.1,0.1,0.2C29,16,29,16.4,29,16.4s-0.7,0.2-1.2-0.2c0,0.1,0.1,0.2,0.1,0.3c0,0.2,0,0.6,0,0.6s-0.7,0.1-1.2-0.4
	c0,0,0,0,0,0c0,0.1,0,0.1,0,0.2c0,0.2-0.1,0.6-0.1,0.6s-0.7,0-1.1-0.6c0-0.1-0.1-0.1-0.1-0.2c0,0.1,0,0.3-0.1,0.4
	c-0.1,0.2-0.2,0.4-0.2,0.4s-0.6-0.2-0.8-0.8c-0.1-0.3-0.1-0.6-0.1-0.9c0,0-0.1,0.1-0.1,0.1s-0.2-0.1-0.4-0.2c0.1,0.5,0.2,1,0.2,1.5
	c0,0.1,0,0.3,0,0.4c0,0.3,0,0.4-0.1,0.7c0,0,0.1,0.2,0.2,0.3c0,0,0.2,0.2,0.2,0.5c0,0.2-0.2,0.2-0.2,0.2s0,0.2-0.1,0.3
	c-0.1,0.1-0.2,0.1-0.2,0.2c-0.1,0-0.2,0-0.2,0s0,0.2-0.1,0.3c-0.1,0.1-0.3,0.1-0.4,0.1c-0.1,0-0.2,0.1-0.2,0.1
	c-0.1,0.1-0.3,0-0.4-0.1c-0.1-0.1-0.1-0.2-0.1-0.2c-0.1,0-0.1,0-0.1,0c-0.2,0.1-0.3,0.1-0.3,0.2c-0.1,0.1-0.1,0.4-0.1,0.6
	c0,0.1,0,0.2-0.1,0.4c0,0,0,0,0,0c0,0,0,0,0,0c0.1,0,0.4,0.2,0.6,0.3c0.2,0.1,0.5,0.5,0.7,0.6c0.3,0.1,0.5-0.1,0.5-0.3
	c0-0.2,0-0.2,0-0.2s0.4,0.1,0.5,0.5c0,0.3-0.3,0.5-0.3,0.5s0.5,0.2,0.3,0.8c-0.1,0.3-0.2,0.5-0.2,0.6c-0.1,0.2-0.1,0.3-0.1,0.3
	s-0.2,0-0.2-0.4c0-0.3-0.1-0.3-0.2-0.3c-0.1-0.1-0.1-0.1-0.1-0.1s0,0.3,0,0.5c-0.1,0.2-0.3,0.6-0.7,0.6c-0.4,0-0.6-0.2-0.6-0.2
	s-0.3,0.3-0.7,0.4c-0.4,0.1-0.8-0.1-0.8-0.1s-0.1,0.3-0.2,0.4c-0.1,0.1-0.3,0.3-0.3,0.3l-0.1-0.1c-0.1-0.1-0.2-0.2-0.2-0.2
	c-0.1-0.1-0.2-0.3-0.2-0.3c-0.1,0-0.4,0.1-0.8,0.1c-0.4-0.1-0.7-0.4-0.7-0.4s-0.3,0.2-0.7,0.2c-0.4,0-0.6-0.3-0.7-0.5
	c-0.1-0.2-0.1-0.5-0.1-0.5s0,0-0.1,0.1c0,0.1-0.1,0.2-0.1,0.4c-0.1,0.3-0.3,0.3-0.3,0.3s0.1-0.1,0-0.2c0-0.1-0.1-0.3-0.3-0.6
	c-0.2-0.4,0.3-0.9,0.3-0.9s-0.3-0.1-0.3-0.5c0-0.3,0.4-0.5,0.4-0.5s0,0.1,0,0.3c0,0.2,0.2,0.3,0.5,0.2c0.3-0.1,0.6-0.5,0.8-0.6
	c0.2-0.1,0.4-0.2,0.6-0.3c0,0,0,0,0.1,0c0,0,0,0,0,0c-0.1-0.1-0.1-0.3-0.1-0.4c0-0.2-0.1-0.5-0.2-0.7c0,0-0.1-0.1-0.3-0.2
	c0,0-0.1,0-0.1,0c0,0,0,0.2-0.1,0.2c-0.2,0.1-0.3,0.1-0.4,0.1c-0.1,0-0.2-0.1-0.2-0.1c0,0-0.2-0.1-0.3-0.1c-0.1-0.1-0.1-0.3-0.1-0.3
	s-0.1,0-0.2,0c-0.1,0-0.2-0.1-0.2-0.2c-0.1-0.1-0.1-0.3-0.1-0.3s-0.2,0-0.2-0.2c0-0.2,0.1-0.4,0.2-0.5c0.1-0.1,0.2-0.3,0.2-0.3
	c-0.1-0.2-0.1-0.4-0.1-0.7c0-0.1,0-0.3,0-0.4c0-0.5,0.1-1,0.2-1.5c-0.2,0.2-0.4,0.2-0.4,0.2s0,0-0.1-0.1c0,0.3,0,0.6-0.1,0.9
	c-0.2,0.6-0.8,0.8-0.8,0.8s-0.2-0.2-0.2-0.4c0-0.1-0.1-0.3-0.1-0.4c0,0.1-0.1,0.1-0.1,0.2c-0.4,0.6-1.1,0.6-1.1,0.6
	s-0.1-0.4-0.1-0.6c0-0.1,0-0.1,0-0.2c0,0,0,0,0,0c-0.5,0.5-1.2,0.4-1.2,0.4s-0.1-0.4,0-0.6c0-0.1,0-0.2,0.1-0.3
	c-0.6,0.4-1.2,0.2-1.2,0.2s0-0.4,0.1-0.6c0-0.1,0.1-0.2,0.1-0.2c-0.6,0.2-1.1-0.1-1.1-0.1s0-0.3,0.2-0.6c0.1-0.1,0.1-0.2,0.2-0.2
	c-0.7,0.1-1.2-0.4-1.2-0.4s0.1-0.3,0.3-0.4c0.2-0.2,0.3-0.3,0.4-0.3c0,0-0.1,0-0.1,0c-0.6-0.1-0.9-0.7-0.9-0.7s0.2-0.2,0.4-0.3
	c0.3-0.1,0.5-0.2,0.5-0.2c-0.1,0-0.2-0.1-0.3-0.1c-0.6-0.2-0.9-0.9-0.9-0.9s0.3-0.1,0.5-0.2c0.2,0,0.4,0,0.6,0
	c-0.1,0-0.3-0.1-0.4-0.2c-0.6-0.4-0.7-1.1-0.7-1.1s0.4,0,0.6,0c0.3,0,0.6,0,0.7,0.1C9,9.8,8.9,9.7,8.7,9.5C8.3,9,8.3,8.3,8.3,8.3
	s0.2-0.1,0.4,0c0.2,0,0.3,0,0.4,0.1C8.8,7.9,8.7,7.7,8.7,7.4C8.6,6.9,8.8,6.5,8.8,6.5c0,0,0.2,0,0.5,0.3C9.6,7,10,7.4,10,7.4
	S9.9,7.3,9.8,7c-0.5-1.1-0.5-2-0.3-2.2c0.2-0.3,0.5-0.3,0.6-0.1c0.1,0.2,0.4,0.8,0.7,1.3c0.4,0.8,0.9,1.5,1.1,1.7
	c0.1-0.2,0.2-0.1,0.2-0.1s0.2,0.3,0.4,0.6c0.2,0.3,0.4,0.5,0.5,0.7c0.2-0.2,0.4-0.3,0.4-0.3l0.1,0.1c0,0,1.3,1.3,1.7,1.9
	c0.4,0.5,0.1,0.8-0.2,1.2c-0.3,0.4-0.2,0.9,0.4,1.1c0.5,0.2,0.9,0,1-0.2c-0.4-0.1-0.8-0.5-0.8-1.1c0-0.1,0-0.2,0-0.3
	c0.1-0.6,0.6-0.9,1.1-0.9c0.2,0,0.4,0,0.5,0.1c0.1,0.1,0.2,0.1,0.3,0.2c0,0,0,0,0,0c0.2-0.4,0.2-0.8-0.1-1.3
	c-0.3-0.6-0.9-0.9-0.9-0.9l-0.1,0.1c0,0,0,0-0.3-0.2c-0.3-0.1-0.5-0.1-0.7,0.2c-0.2,0.2-0.2,0.5-0.2,0.5S15.2,9,15.1,8.8
	c-0.1-0.2,0-0.3,0-0.3s-0.2,0.1-0.4,0.2c-0.2,0.1-0.6,0.2-0.9-0.1c-0.3-0.3-0.3-0.7-0.3-0.7s0.2,0.3,0.6,0.4
	c0.3,0.1,0.6-0.1,0.8-0.2c0.2-0.1,0.5-0.1,0.5-0.1s-0.3-0.2-0.7-0.1C14.3,7.9,14.3,8,14.3,8S14.1,7.9,14,7.6c-0.1-0.3,0-0.5,0.2-0.7
	c0.2-0.2,0.6-0.3,0.6-0.3s-0.1-0.1,0.1-0.2c0.1,0,0.2-0.1,0.2-0.1S15,6,15.3,5.9c0.5-0.2,1.4,0.2,2.3,0.3c0.6,0.1,0.9-0.1,0.9-0.1
	s0,0.1-0.2,0.3c-0.2,0.2-0.4,0.3-0.4,0.3s0.2,0,0.3,0c0.2,0,0.4-0.1,0.4-0.1s-0.1,0.1-0.3,0.3c-0.2,0.1-0.3,0.2-0.3,0.2
	s0.3,0.2,0.6,0.3c0.3,0.1,0.8,0.1,0.8,0.1s-0.2,0.2-0.4,0.2c-0.2,0.1-0.3,0.1-0.3,0.1S19,8,19.2,8.5c0.2,0.3,0.4,0.8,0.5,1.1
	c0.1-0.3,0.4-0.9,0.5-1.1c0.2-0.4,0.4-0.7,0.4-0.7s-0.1,0-0.3-0.1C20.1,7.6,20,7.4,20,7.4s0.5,0,0.8-0.1c0.3-0.1,0.6-0.3,0.6-0.3
	S21.2,7,21,6.9c-0.2-0.1-0.3-0.3-0.3-0.3s0.3,0.1,0.4,0.1c0.2,0,0.3,0,0.3,0s-0.2-0.1-0.4-0.3c-0.1-0.1-0.2-0.3-0.2-0.3
	s0.3,0.2,0.9,0.1c0.9-0.1,1.8-0.6,2.3-0.3c0.3,0.1,0.2,0.5,0.2,0.5s0.1,0,0.2,0.1c0.1,0,0.1,0.2,0.1,0.2s0.4,0.1,0.6,0.3
	c0.2,0.2,0.3,0.4,0.2,0.7C25.4,7.9,25.2,8,25.2,8s0-0.1-0.4-0.2c-0.5-0.1-0.7,0.1-0.7,0.1s0.3,0,0.5,0.1c0.2,0.1,0.5,0.3,0.8,0.2
	C25.8,8.1,26,7.8,26,7.8s0.1,0.4-0.3,0.7c-0.3,0.3-0.7,0.2-0.9,0.1c-0.2-0.1-0.4-0.2-0.4-0.2s0.1,0.1,0,0.3
	c-0.1,0.2-0.2,0.3-0.2,0.3s0-0.3-0.2-0.5c-0.2-0.2-0.5-0.3-0.7-0.2C23,8.6,23,8.6,23,8.6l-0.1-0.1c0,0-0.5,0.3-0.9,0.9
	c-0.3,0.6-0.3,0.9-0.1,1.4c0,0,0,0,0,0c0.1-0.1,0.1-0.1,0.3-0.2c0.2-0.1,0.4-0.1,0.5-0.1c0.5,0,1,0.3,1.1,0.9c0,0.1,0,0.2,0,0.3
	c0,0.5-0.4,0.9-0.8,1.1c0.1,0.3,0.5,0.4,1,0.2c0.6-0.2,0.7-0.7,0.4-1.1c-0.3-0.4-0.6-0.7-0.2-1.2c0.4-0.5,1.7-1.9,1.7-1.9l0.1-0.1
	c0,0,0.2,0.1,0.4,0.3c0.1-0.1,0.4-0.4,0.5-0.7c0.2-0.3,0.4-0.6,0.4-0.6s0.1-0.2,0.2,0.1c0.2-0.3,0.7-1,1.1-1.7
	c0.2-0.5,0.6-1.1,0.7-1.3c0.1-0.2,0.4-0.2,0.6,0.1c0.1,0.3,0.2,1.1-0.3,2.2c-0.1,0.3-0.2,0.4-0.2,0.4s0.4-0.4,0.7-0.6
	c0.3-0.2,0.5-0.3,0.5-0.3c0,0,0.2,0.4,0.1,0.8c0,0.3-0.1,0.6-0.5,1.1c0.1-0.1,0.2-0.1,0.4-0.1c0.3,0,0.4,0,0.4,0s0.1,0.7-0.4,1.1
	c-0.2,0.2-0.3,0.3-0.6,0.4c0.1,0,0.3,0,0.7-0.1c0.2,0,0.6,0,0.6,0s-0.1,0.7-0.7,1.1c-0.1,0.1-0.2,0.1-0.4,0.2c0.2,0,0.3,0,0.6,0
	C31.1,11.2,31.4,11.3,31.4,11.3L31.4,11.3z M25.9,11.1l0-0.2l-0.2-0.1l-0.4,0.3l0.1,0.1L25.9,11.1L25.9,11.1z M13.6,12.9l-0.1,0.2
	l0.2,0.1l0.4-0.3l-0.1-0.1L13.6,12.9L13.6,12.9z M13.9,11.9l-0.5-0.1L13.3,12l0.1,0.1l0.5,0L13.9,11.9L13.9,11.9z M13.5,11l0,0.2
	l0.5,0.2l0.1-0.1l-0.4-0.3L13.5,11L13.5,11z M25.9,13.1l-0.1-0.2l-0.5-0.2l-0.1,0.1l0.4,0.3L25.9,13.1L25.9,13.1z M25.2,13.8l0-0.2
	L25,13.2l-0.1,0.1l0.2,0.5L25.2,13.8L25.2,13.8z M24.1,13.9l0.1-0.1l-0.1-0.4l-0.2,0l0,0.4L24.1,13.9L24.1,13.9z M15.5,13.9l0-0.4
	l-0.2,0l-0.1,0.4l0.1,0.1L15.5,13.9L15.5,13.9z M14.4,13.7l0.2-0.5l-0.1-0.1l-0.3,0.4l0,0.2L14.4,13.7z"/>
</svg>
