<?xml version="1.0" encoding="utf-8"?>
<!-- Generator: Adobe Illustrator 19.0.1, SVG Export Plug-In . SVG Version: 6.00 Build 0)  -->
<svg version="1.1" id="Слой_1" xmlns="http://www.w3.org/2000/svg" xmlns:xlink="http://www.w3.org/1999/xlink" x="0px" y="0px"
	 viewBox="0 0 93.2 56.7" style="enable-background:new 0 0 93.2 56.7;" xml:space="preserve">
<style type="text/css">
	.st0{fill-rule:evenodd;clip-rule:evenodd;fill:#FFFFFF;}
	.st1{fill:#FFFFFF;}
</style>
<g>
	<path class="st0" d="M0,33.9h93.2V0H0V33.9L0,33.9z M70.2,4.5h18.5v18.5L70.2,4.5L70.2,4.5z M58.9,4.5h3.4v24.8h-3.4V4.5L58.9,4.5z
		 M53.4,4.5h5.2L33.8,29.3h-5.2L53.4,4.5L53.4,4.5z M27.2,4.5h18.4l-9.2,9.2L27.2,4.5L27.2,4.5z M4.4,4.5h15L22.8,8H4.4V4.5L4.4,4.5
		z M67.7,9.9l7.2,7.2l-7.2,7.2V9.9L67.7,9.9z M17.7,13.4h10.6l4.2,4.2L20.8,29.3h-3.1V13.4L17.7,13.4z M4.4,13.4h7.8v15.9H4.4V13.4
		L4.4,13.4z M53.4,17.5v11.8H41.5L53.4,17.5L53.4,17.5z M78.9,21l8.3,8.3H70.6L78.9,21L78.9,21z"/>
	<polygon class="st1" points="0,39.7 1.5,39.7 3.3,43 3.5,43 5.2,39.7 6.7,39.7 6.7,46.7 5.8,46.7 5.8,40.7 5.6,40.7 3.8,44.1 
		2.9,44.1 1.1,40.7 0.9,40.7 0.9,46.7 0,46.7 0,39.7 	"/>
	<path class="st1" d="M9.7,43.8h2.5l-1.1-3.2h-0.4L9.7,43.8L9.7,43.8z M12.5,44.6H9.4l-0.7,2.2H7.8l2.4-7h1.5l2.4,7h-0.9L12.5,44.6
		L12.5,44.6z"/>
	<path class="st1" d="M20.9,44.7c-0.3,1.3-1.2,2.1-2.8,2.1c-2.1,0-3.3-1.6-3.3-3.7c0-2.1,1.2-3.7,3.3-3.7c1.4,0,2.4,0.8,2.7,2h-0.9
		c-0.3-0.7-0.8-1.2-1.8-1.2c-1.6,0-2.4,1.4-2.4,2.8c0,1.5,0.7,2.8,2.4,2.8c1,0,1.6-0.5,1.9-1.3H20.9L20.9,44.7z"/>
	<polygon class="st1" points="27.1,40.5 24.8,40.5 24.8,46.7 23.9,46.7 23.9,40.5 21.6,40.5 21.6,39.7 27.1,39.7 27.1,40.5 	"/>
	<polygon class="st1" points="33.2,45.9 33.2,46.7 28.2,46.7 28.2,39.7 33.1,39.7 33.1,40.5 29.1,40.5 29.1,42.7 32.3,42.7 
		32.3,43.5 29.1,43.5 29.1,45.9 33.2,45.9 	"/>
	<path class="st1" d="M37.4,43.1c1.2,0,1.6-0.5,1.6-1.3c0-0.8-0.4-1.3-1.6-1.3h-1.9v2.6H37.4L37.4,43.1z M37.6,39.7
		c1.5,0,2.4,0.8,2.4,2.1c0,1.3-0.8,2.1-2.4,2.1h-2.1v2.8h-0.9v-7H37.6L37.6,39.7z"/>
	<path class="st1" d="M47.1,44.7c-0.3,1.3-1.2,2.1-2.8,2.1c-2.1,0-3.3-1.6-3.3-3.7c0-2.1,1.2-3.7,3.3-3.7c1.4,0,2.4,0.8,2.7,2h-0.9
		c-0.3-0.7-0.8-1.2-1.8-1.2c-1.6,0-2.4,1.4-2.4,2.8c0,1.5,0.7,2.8,2.4,2.8c1,0,1.6-0.5,1.9-1.3H47.1L47.1,44.7z"/>
	<polygon class="st1" points="48.5,39.7 49.4,39.7 49.4,42.7 51.5,42.7 52.9,39.7 53.9,39.7 52.3,43.1 53.9,46.7 53,46.7 51.5,43.5 
		49.4,43.5 49.4,46.7 48.5,46.7 48.5,39.7 	"/>
	<path class="st1" d="M56.4,43.8h2.5l-1.1-3.2h-0.4L56.4,43.8L56.4,43.8z M59.2,44.6h-3.1l-0.7,2.2h-0.9l2.4-7h1.5l2.4,7h-0.9
		L59.2,44.6L59.2,44.6z"/>
	<path class="st1" d="M66.3,43v-2.5h-2.1c-1.1,0-1.6,0.5-1.6,1.3c0,0.8,0.4,1.3,1.6,1.3H66.3L66.3,43z M67.2,39.7v7h-0.9v-3h-2.1
		c-0.2,0-0.4,0-0.6,0l-1.1,3h-0.9l1.1-3.2c-0.7-0.3-1.1-0.9-1.1-1.8c0-1.3,0.8-2.1,2.3-2.1H67.2L67.2,39.7z"/>
	<path class="st1" d="M2.8,53c1.2,0,1.6-0.5,1.6-1.3c0-0.8-0.4-1.3-1.6-1.3H0.9V53H2.8L2.8,53z M3,49.6c1.5,0,2.4,0.8,2.4,2.1
		c0,1.3-0.8,2.1-2.4,2.1H0.9v2.8H0v-7H3L3,49.6z"/>
	<path class="st1" d="M12.1,53.1c0-1.5-0.7-2.8-2.4-2.8s-2.4,1.4-2.4,2.8c0,1.5,0.7,2.8,2.4,2.8S12.1,54.6,12.1,53.1L12.1,53.1z
		 M13,53.1c0,2-1.1,3.7-3.3,3.7c-2.2,0-3.3-1.6-3.3-3.7c0-2,1.1-3.7,3.3-3.7C11.9,49.4,13,51.1,13,53.1L13,53.1z"/>
	<path class="st1" d="M20.1,54.6c-0.3,1.3-1.2,2.1-2.8,2.1c-2.1,0-3.3-1.6-3.3-3.7c0-2.1,1.2-3.7,3.3-3.7c1.4,0,2.4,0.8,2.7,2h-0.9
		c-0.3-0.8-0.8-1.2-1.8-1.2c-1.6,0-2.4,1.4-2.4,2.8c0,1.5,0.7,2.8,2.4,2.8c1,0,1.6-0.5,1.9-1.3H20.1L20.1,54.6z"/>
	<path class="st1" d="M27.2,54.6c-0.3,1.3-1.2,2.1-2.8,2.1c-2.1,0-3.3-1.6-3.3-3.7c0-2.1,1.2-3.7,3.3-3.7c1.4,0,2.4,0.8,2.7,2h-0.9
		c-0.3-0.8-0.8-1.2-1.8-1.2c-1.6,0-2.4,1.4-2.4,2.8c0,1.5,0.7,2.8,2.4,2.8c1,0,1.6-0.5,1.9-1.3H27.2L27.2,54.6z"/>
	<polygon class="st1" points="29.5,49.6 29.5,55.5 29.7,55.5 33,49.6 34.4,49.6 34.4,56.6 33.5,56.6 33.5,50.6 33.3,50.6 30,56.6 
		28.6,56.6 28.6,49.6 29.5,49.6 	"/>
	<polygon class="st1" points="37,49.6 37,55.5 37.3,55.5 40.5,49.6 41.9,49.6 41.9,56.6 41.1,56.6 41.1,50.6 40.8,50.6 37.6,56.6 
		36.2,56.6 36.2,49.6 37,49.6 	"/>
</g>
</svg>
